<svg width="24" height="18" viewBox="0 0 24 18" fill="none" xmlns="http://www.w3.org/2000/svg">
<path d="M24 0H0V18H24V0Z" fill="#41479B"/>
<path d="M11.9328 1.63629C11.9603 1.58055 12.0398 1.58055 12.0673 1.63629L12.4234 2.35789C12.4343 2.38003 12.4555 2.39538 12.4799 2.39892L13.2762 2.51463C13.3378 2.52357 13.3623 2.59917 13.3178 2.64256L12.7416 3.20425C12.7239 3.22149 12.7158 3.24631 12.72 3.27064L12.856 4.06375C12.8665 4.12503 12.8022 4.17175 12.7472 4.14282L12.0349 3.76836C12.0131 3.75687 11.987 3.75687 11.9651 3.76836L11.2529 4.14282C11.1979 4.17175 11.1335 4.12503 11.144 4.06375L11.2801 3.27064C11.2843 3.24631 11.2762 3.22149 11.2585 3.20425L10.6823 2.64256C10.6378 2.59917 10.6623 2.52357 10.7238 2.51463L11.5202 2.39892C11.5446 2.39538 11.5657 2.38003 11.5766 2.35789L11.9328 1.63629Z" fill="#FFD018"/>
<path d="M11.9328 13.6363C11.9603 13.5805 12.0398 13.5805 12.0673 13.6363L12.4234 14.3579C12.4343 14.38 12.4555 14.3954 12.4799 14.3989L13.2762 14.5146C13.3378 14.5236 13.3623 14.5992 13.3178 14.6426L12.7416 15.2043C12.7239 15.2214 12.7158 15.2463 12.72 15.2706L12.856 16.0638C12.8665 16.125 12.8022 16.1718 12.7472 16.1429L12.0349 15.7683C12.0131 15.7569 11.987 15.7569 11.9651 15.7683L11.2529 16.1429C11.1979 16.1718 11.1335 16.125 11.144 16.0638L11.2801 15.2706C11.2843 15.2463 11.2762 15.2214 11.2585 15.2043L10.6823 14.6426C10.6378 14.5992 10.6623 14.5236 10.7238 14.5146L11.5202 14.3989C11.5446 14.3954 11.5657 14.38 11.5766 14.3579L11.9328 13.6363Z" fill="#FFD018"/>
<path d="M5.93278 7.63629C5.96029 7.58055 6.03979 7.58055 6.0673 7.63629L6.42343 8.35789C6.43435 8.38003 6.45547 8.39538 6.4799 8.39892L7.27624 8.51463C7.33775 8.52357 7.36231 8.59917 7.3178 8.64256L6.74156 9.20425C6.72389 9.22149 6.71582 9.24631 6.71999 9.27064L6.85603 10.0638C6.86653 10.125 6.80222 10.1718 6.7472 10.1428L6.03494 9.76836C6.01309 9.75687 5.98699 9.75687 5.96513 9.76836L5.25287 10.1428C5.19785 10.1718 5.13355 10.125 5.14405 10.0638L5.28008 9.27064C5.28425 9.24631 5.27618 9.22149 5.25851 9.20425L4.68227 8.64256C4.63777 8.59917 4.66232 8.52357 4.72384 8.51463L5.52017 8.39892C5.54461 8.39538 5.56573 8.38003 5.57665 8.35789L5.93278 7.63629Z" fill="#FFD018"/>
<path d="M17.9328 7.63629C17.9603 7.58055 18.0398 7.58055 18.0672 7.63629L18.4235 8.35789C18.4343 8.38003 18.4554 8.39538 18.4799 8.39892L19.2762 8.51463C19.3377 8.52357 19.3623 8.59917 19.3178 8.64256L18.7416 9.20425C18.7239 9.22149 18.7158 9.24631 18.72 9.27064L18.8561 10.0638C18.8666 10.125 18.8022 10.1718 18.7472 10.1428L18.035 9.76836C18.0131 9.75687 17.987 9.75687 17.9651 9.76836L17.2529 10.1428C17.1978 10.1718 17.1335 10.125 17.144 10.0638L17.28 9.27064C17.2842 9.24631 17.2761 9.22149 17.2584 9.20425L16.6823 8.64256C16.6377 8.59917 16.6623 8.52357 16.7238 8.51463L17.5202 8.39892C17.5446 8.39538 17.5658 8.38003 17.5766 8.35789L17.9328 7.63629Z" fill="#FFD018"/>
<path d="M14.9328 2.44012C14.9603 2.38438 15.0398 2.38438 15.0672 2.44012L15.4235 3.16173C15.4343 3.18387 15.4554 3.1992 15.4799 3.20275L16.2762 3.31846C16.3377 3.3274 16.3623 3.403 16.3178 3.4464L15.7416 4.00809C15.7239 4.02532 15.7158 4.05015 15.72 4.07448L15.8561 4.86759C15.8666 4.92886 15.8022 4.97559 15.7472 4.94665L15.035 4.57219C15.0131 4.5607 14.987 4.5607 14.9651 4.57219L14.2529 4.94665C14.1979 4.97559 14.1335 4.92886 14.144 4.86759L14.2801 4.07448C14.2843 4.05015 14.2762 4.02532 14.2585 4.00809L13.6823 3.4464C13.6378 3.403 13.6623 3.3274 13.7238 3.31846L14.5202 3.20275C14.5446 3.1992 14.5657 3.18387 14.5766 3.16173L14.9328 2.44012Z" fill="#FFD018"/>
<path d="M8.93278 12.8325C8.96029 12.7767 9.03979 12.7767 9.0673 12.8325L9.42343 13.5541C9.43435 13.5762 9.45547 13.5915 9.4799 13.5951L10.2762 13.7108C10.3378 13.7197 10.3623 13.7953 10.3178 13.8387L9.74156 14.4004C9.72389 14.4177 9.71582 14.4425 9.71999 14.4668L9.85603 15.26C9.86653 15.3212 9.80222 15.368 9.7472 15.339L9.03494 14.9645C9.01309 14.953 8.98699 14.953 8.96513 14.9645L8.25287 15.339C8.19785 15.368 8.13355 15.3212 8.14405 15.26L8.28008 14.4668C8.28425 14.4425 8.27618 14.4177 8.25851 14.4004L7.68227 13.8387C7.63777 13.7953 7.66232 13.7197 7.72384 13.7108L8.52017 13.5951C8.54461 13.5915 8.56573 13.5762 8.57665 13.5541L8.93278 12.8325Z" fill="#FFD018"/>
<path d="M6.73662 4.63629C6.76413 4.58055 6.84361 4.58055 6.87114 4.63629L7.22727 5.35789C7.23819 5.38003 7.25931 5.39538 7.28373 5.39892L8.08008 5.51463C8.14159 5.52357 8.16615 5.59917 8.12164 5.64256L7.5454 6.20425C7.52773 6.22149 7.51966 6.24631 7.52383 6.27064L7.65987 7.06375C7.67037 7.12503 7.60606 7.17175 7.55104 7.14282L6.83878 6.76836C6.81693 6.75687 6.79083 6.75687 6.76897 6.76836L6.05671 7.14282C6.00169 7.17175 5.93737 7.12503 5.94789 7.06375L6.08392 6.27064C6.08809 6.24631 6.08002 6.22149 6.06235 6.20425L5.48611 5.64256C5.44159 5.59917 5.46616 5.52357 5.52768 5.51463L6.32401 5.39892C6.34845 5.39538 6.36957 5.38003 6.38049 5.35789L6.73662 4.63629Z" fill="#FFD018"/>
<path d="M17.1289 10.6363C17.1563 10.5805 17.2358 10.5805 17.2633 10.6363L17.6195 11.3579C17.6305 11.38 17.6515 11.3954 17.6759 11.3989L18.4723 11.5146C18.5338 11.5236 18.5584 11.5992 18.5138 11.6426L17.9377 12.2043C17.92 12.2215 17.9119 12.2463 17.9161 12.2706L18.0521 13.0638C18.0626 13.125 17.9983 13.1718 17.9432 13.1428L17.231 12.7684C17.2091 12.7569 17.183 12.7569 17.1611 12.7684L16.4489 13.1428C16.3939 13.1718 16.3295 13.125 16.3402 13.0638L16.4761 12.2706C16.4803 12.2463 16.4722 12.2215 16.4546 12.2043L15.8783 11.6426C15.8338 11.5992 15.8584 11.5236 15.9199 11.5146L16.7162 11.3989C16.7407 11.3954 16.7618 11.38 16.7728 11.3579L17.1289 10.6363Z" fill="#FFD018"/>
<path d="M17.1289 4.63629C17.1563 4.58055 17.2358 4.58055 17.2633 4.63629L17.6195 5.35789C17.6305 5.38003 17.6515 5.39538 17.6759 5.39892L18.4723 5.51463C18.5338 5.52357 18.5584 5.59917 18.5138 5.64256L17.9377 6.20425C17.92 6.22149 17.9119 6.24631 17.9161 6.27064L18.0521 7.06375C18.0626 7.12503 17.9983 7.17175 17.9432 7.14282L17.231 6.76836C17.2091 6.75687 17.183 6.75687 17.1611 6.76836L16.4489 7.14282C16.3939 7.17175 16.3295 7.12503 16.3402 7.06375L16.4761 6.27064C16.4803 6.24631 16.4722 6.22149 16.4546 6.20425L15.8783 5.64256C15.8338 5.59917 15.8584 5.52357 15.9199 5.51463L16.7162 5.39892C16.7407 5.39538 16.7618 5.38003 16.7728 5.35789L17.1289 4.63629Z" fill="#FFD018"/>
<path d="M6.73662 10.6363C6.76413 10.5805 6.84361 10.5805 6.87114 10.6363L7.22727 11.3579C7.23819 11.38 7.25931 11.3954 7.28373 11.3989L8.08008 11.5146C8.14159 11.5236 8.16615 11.5992 8.12164 11.6426L7.5454 12.2043C7.52773 12.2215 7.51966 12.2463 7.52383 12.2706L7.65987 13.0638C7.67037 13.125 7.60606 13.1718 7.55104 13.1428L6.83878 12.7684C6.81693 12.7569 6.79083 12.7569 6.76897 12.7684L6.05671 13.1428C6.00169 13.1718 5.93737 13.125 5.94789 13.0638L6.08392 12.2706C6.08809 12.2463 6.08002 12.2215 6.06235 12.2043L5.48611 11.6426C5.44159 11.5992 5.46616 11.5236 5.52768 11.5146L6.32401 11.3989C6.34845 11.3954 6.36957 11.38 6.38049 11.3579L6.73662 10.6363Z" fill="#FFD018"/>
<path d="M8.93278 2.44012C8.96029 2.38438 9.03979 2.38438 9.0673 2.44012L9.42343 3.16173C9.43435 3.18387 9.45547 3.1992 9.4799 3.20275L10.2762 3.31846C10.3378 3.3274 10.3623 3.403 10.3178 3.4464L9.74156 4.00809C9.72389 4.02532 9.71582 4.05015 9.71999 4.07448L9.85603 4.86759C9.86653 4.92886 9.80222 4.97559 9.7472 4.94665L9.03494 4.57219C9.01309 4.5607 8.98699 4.5607 8.96513 4.57219L8.25287 4.94665C8.19785 4.97559 8.13355 4.92886 8.14405 4.86759L8.28008 4.07448C8.28425 4.05015 8.27618 4.02532 8.25851 4.00809L7.68227 3.4464C7.63777 3.403 7.66232 3.3274 7.72384 3.31846L8.52017 3.20275C8.54461 3.1992 8.56573 3.18387 8.57665 3.16173L8.93278 2.44012Z" fill="#FFD018"/>
<path d="M14.9328 12.8325C14.9603 12.7767 15.0398 12.7767 15.0672 12.8325L15.4235 13.5541C15.4343 13.5762 15.4554 13.5915 15.4799 13.5951L16.2762 13.7108C16.3377 13.7197 16.3623 13.7953 16.3178 13.8387L15.7416 14.4004C15.7239 14.4177 15.7158 14.4425 15.72 14.4668L15.8561 15.26C15.8666 15.3212 15.8022 15.368 15.7472 15.339L15.035 14.9645C15.0131 14.953 14.987 14.953 14.9651 14.9645L14.2529 15.339C14.1979 15.368 14.1335 15.3212 14.144 15.26L14.2801 14.4668C14.2843 14.4425 14.2762 14.4177 14.2585 14.4004L13.6823 13.8387C13.6378 13.7953 13.6623 13.7197 13.7238 13.7108L14.5202 13.5951C14.5446 13.5915 14.5657 13.5762 14.5766 13.5541L14.9328 12.8325Z" fill="#FFD018"/>
</svg>
