<svg width="32" height="32" viewBox="0 0 32 32" fill="none" xmlns="http://www.w3.org/2000/svg">
<path fill-rule="evenodd" clip-rule="evenodd" d="M0 16C0 7.16344 7.16344 0 16 0C24.8366 0 32 7.16344 32 16C32 24.8366 24.8366 32 16 32C7.16344 32 0 24.8366 0 16ZM15.9768 11.7476C17.2768 11.7476 18.1538 12.3099 18.6538 12.7799L20.6077 10.8693C19.4077 9.75229 17.8461 9.06666 15.9768 9.06666C13.269 9.06666 10.9305 10.6228 9.79195 12.8877L9.79211 12.8878C9.3229 13.8277 9.05368 14.883 9.05368 16C9.05368 17.117 9.32292 18.1725 9.79217 19.1123L12.0384 17.3713L9.79991 19.1123C10.9384 21.3772 13.2693 22.9333 15.9771 22.9333C17.8464 22.9333 19.4156 22.317 20.5618 21.2539L20.5617 21.2538C21.8693 20.0443 22.6232 18.2648 22.6232 16.1541C22.6232 15.584 22.577 15.168 22.477 14.7366H15.9768V17.3096H19.7923C19.7154 17.949 19.3 18.912 18.3768 19.5591L18.377 19.5592C17.7924 19.9675 17.0078 20.2524 15.9771 20.2524C14.1462 20.2524 12.5923 19.043 12.0385 17.3713L12.0384 17.3713C11.8922 16.9399 11.8076 16.4776 11.8076 16C11.8076 15.5224 11.8922 15.0602 12.0307 14.6287L12.0305 14.6286C12.5921 12.957 14.146 11.7476 15.9768 11.7476ZM18.377 19.5592C18.377 19.5592 18.3771 19.5591 18.3771 19.5591L20.5617 21.2538C20.5616 21.2538 20.5616 21.2539 20.5615 21.2539L18.377 19.5592ZM12.0305 14.6286L12.0305 14.6287L9.79211 12.8878L9.79217 12.8877L12.0305 14.6286Z" fill="#232323"/>
</svg>
