<svg width="30" height="30" viewBox="0 0 30 30" fill="none" xmlns="http://www.w3.org/2000/svg">
<path fill-rule="evenodd" clip-rule="evenodd" d="M15 28.5C22.456 28.5 28.5 22.456 28.5 15C28.5 7.544 22.456 1.5 15 1.5C7.544 1.5 1.5 7.544 1.5 15C1.5 22.456 7.544 28.5 15 28.5ZM15 30C23.284 30 30 23.284 30 15C30 6.716 23.284 0 15 0C6.716 0 0 6.716 0 15C0 23.284 6.716 30 15 30Z" fill="#FF655E"/>
<path d="M14 16.5C14.0012 16.3698 14.028 16.2412 14.0789 16.1214C14.1298 16.0016 14.2037 15.8931 14.2966 15.8019C14.3895 15.7107 14.4994 15.6387 14.6201 15.59C14.7408 15.5413 14.8699 15.5168 15 15.518C15.552 15.518 16 15.958 16 16.5C15.999 16.6302 15.9723 16.759 15.9214 16.8789C15.8706 16.9988 15.7966 17.1075 15.7037 17.1988C15.6109 17.29 15.5009 17.3621 15.3802 17.4109C15.2594 17.4597 15.1302 17.4842 15 17.483C14.448 17.483 14 17.043 14 16.5Z" fill="#FF655E"/>
<path fill-rule="evenodd" clip-rule="evenodd" d="M15 7C12.924 7 11.25 8.695 11.25 10.773V12H9V21H21V12H18.75V10.773C18.75 8.695 17.076 7 15 7ZM17.25 12V10.773C17.2529 10.1733 17.0175 9.59689 16.5956 9.17065C16.1737 8.7444 15.5997 8.50317 15 8.5C14.4003 8.50317 13.8263 8.7444 13.4044 9.17065C12.9825 9.59689 12.7471 10.1733 12.75 10.773V12H17.25ZM19.5 19.5V13.5H10.5V19.5H19.5Z" fill="#FF655E"/>
</svg>
