<svg width="18" height="18" viewBox="0 0 18 18" fill="none" xmlns="http://www.w3.org/2000/svg">
<path d="M7.5 11.25V12.75H5.25C3.17893 12.75 1.5 11.0711 1.5 9C1.5 6.92893 3.17893 5.25 5.25 5.25H7.5V6.75H5.25C4.00736 6.75 3 7.75736 3 9C3 10.2426 4.00736 11.25 5.25 11.25H7.5Z" fill="white"/>
<path d="M10.5 6.75V5.25H12.75C14.8211 5.25 16.5 6.92893 16.5 9C16.5 11.0711 14.8211 12.75 12.75 12.75H10.5V11.25H12.75C13.9926 11.25 15 10.2426 15 9C15 7.75736 13.9926 6.75 12.75 6.75H10.5Z" fill="white"/>
<path d="M12.75 8.25H5.25V9.75H12.75V8.25Z" fill="white"/>
</svg>
