<svg width="20" height="20" viewBox="0 0 20 20" fill="none" xmlns="http://www.w3.org/2000/svg">
<path d="M9 13C9 12.7348 9.10536 12.4804 9.29289 12.2929C9.48043 12.1054 9.73478 12 10 12C10.2652 12 10.5196 12.1054 10.7071 12.2929C10.8946 12.4804 11 12.7348 11 13C11 13.2652 10.8946 13.5196 10.7071 13.7071C10.5196 13.8946 10.2652 14 10 14C9.73478 14 9.48043 13.8946 9.29289 13.7071C9.10536 13.5196 9 13.2652 9 13Z" fill="black"/>
<path fill-rule="evenodd" clip-rule="evenodd" d="M5 7H3V19H17V7H15V6C15 4.67392 14.4732 3.40215 13.5355 2.46447C12.5979 1.52678 11.3261 1 10 1C8.67392 1 7.40215 1.52678 6.46447 2.46447C5.52678 3.40215 5 4.67392 5 6V7ZM13.5 6C13.5 5.54037 13.4095 5.08525 13.2336 4.66061C13.0577 4.23597 12.7999 3.85013 12.4749 3.52513C12.1499 3.20012 11.764 2.94231 11.3394 2.76642C10.9148 2.59053 10.4596 2.5 10 2.5C9.54037 2.5 9.08525 2.59053 8.66061 2.76642C8.23597 2.94231 7.85013 3.20012 7.52513 3.52513C7.20012 3.85013 6.94231 4.23597 6.76642 4.66061C6.59053 5.08525 6.5 5.54037 6.5 6V7H13.5V6ZM4.5 8.5V17.5H15.5V8.5H4.5Z" fill="black"/>
</svg>
