<svg width="32" height="32" viewBox="0 0 32 32" fill="none" xmlns="http://www.w3.org/2000/svg">
<path fill-rule="evenodd" clip-rule="evenodd" d="M0 16C0 7.16344 7.16344 0 16 0C24.8366 0 32 7.16344 32 16C32 24.8366 24.8366 32 16 32C7.16344 32 0 24.8366 0 16ZM15.9893 16.2569C18.3486 16.2569 20.2665 14.4053 20.2665 12.1291C20.2665 9.85207 18.3486 8 15.9893 8C13.6304 8 11.712 9.85207 11.712 12.1291C11.712 14.4053 13.6304 16.2569 15.9893 16.2569ZM20.2145 18.634C19.4411 19.1029 18.6014 19.4354 17.7307 19.6269L20.1218 21.9352C20.6117 22.4071 20.6117 23.1734 20.1218 23.6457C19.6325 24.1181 18.8394 24.1181 18.3506 23.6457L15.9996 21.3774L13.6507 23.6457C13.4058 23.8817 13.0849 23.9998 12.764 23.9998C12.4435 23.9998 12.1231 23.8817 11.8782 23.6457C11.3889 23.1734 11.3889 22.4076 11.8777 21.9352L14.2691 19.6269C13.3984 19.4354 12.5587 19.1024 11.7853 18.634C11.2 18.2778 11.0242 17.5315 11.393 16.966C11.7607 16.3998 12.5341 16.2293 13.1205 16.5855C14.8715 17.6488 17.1272 17.6491 18.8793 16.5855C19.4656 16.2293 20.2388 16.3998 20.6073 16.966C20.9761 17.531 20.7998 18.2778 20.2145 18.634Z" fill="#232323"/>
<path d="M15.9888 10.4199C16.9654 10.4199 17.7598 11.1865 17.7598 12.1292C17.7598 13.0712 16.9654 13.8382 15.9888 13.8382C15.0129 13.8382 14.2178 13.0712 14.2178 12.1292C14.2178 11.1865 15.0129 10.4199 15.9888 10.4199Z" fill="#232323"/>
</svg>
