<svg width="68" height="68" viewBox="0 0 68 68" fill="none" xmlns="http://www.w3.org/2000/svg">
<path fill-rule="evenodd" clip-rule="evenodd" d="M34.7082 9.91699C21.0373 9.91699 9.9165 21.0378 9.9165 34.7087C9.9165 48.3795 21.0373 59.5003 34.7082 59.5003C48.379 59.5003 59.4998 48.3795 59.4998 34.7087C59.4998 21.0378 48.379 9.91699 34.7082 9.91699M34.7082 63.7503C18.6942 63.7503 5.6665 50.7227 5.6665 34.7087C5.6665 18.6947 18.6942 5.66699 34.7082 5.66699C50.7222 5.66699 63.7498 18.6947 63.7498 34.7087C63.7498 50.7227 50.7222 63.7503 34.7082 63.7503" fill="white"/>
<path fill-rule="evenodd" clip-rule="evenodd" d="M31.5458 28.5784C31.0443 31.4145 31.0358 38.189 31.5373 40.8807C34.0249 40.0024 39.4139 36.4607 40.8646 34.7069C39.4196 33.004 34.0986 29.536 31.5458 28.5784V28.5784ZM30.6792 45.3375C29.9142 45.3375 29.1888 45.1193 28.5967 44.53C28.1405 44.0795 26.9222 42.8753 26.9165 34.9448C26.9137 26.5241 28.1802 25.2718 28.5967 24.8553C30.0785 23.3876 32.4925 24.3935 33.521 24.8241C34.9943 25.439 45.3332 30.7345 45.3332 34.6955C45.3332 38.4071 36.0285 43.5978 33.6513 44.5895C32.7248 44.9748 31.668 45.3375 30.6792 45.3375V45.3375Z" fill="white"/>
</svg>
