<svg width="21" height="20" viewBox="0 0 21 20" fill="none" xmlns="http://www.w3.org/2000/svg">
<path d="M10.235 3.33301C12.0768 3.33301 13.7416 4.07798 14.9463 5.28301L16.8975 3.33301V9.16634H11.0606L13.7456 6.48301C12.8458 5.57542 11.6129 5.00062 10.2301 4.99968C8.0559 5.00177 6.20701 6.3928 5.52377 8.33301H5.50903C5.41401 8.60107 5.34125 8.87959 5.29297 9.16634H3.61562C4.02457 5.87667 6.82348 3.33301 10.2267 3.33301H10.235Z" fill="white"/>
<path d="M3.56421 10.833V16.6663L5.51543 14.7163C6.72018 15.9214 8.38495 16.6663 10.2267 16.6663L10.235 16.6663C13.6383 16.6663 16.4372 14.1227 16.8461 10.833H15.1688C15.1205 11.1198 15.0477 11.3983 14.9527 11.6663H14.938C14.2548 13.6065 12.406 14.9975 10.2319 14.9997C8.84895 14.9988 7.61605 14.424 6.71618 13.5163L9.40119 10.833H3.56421Z" fill="white"/>
</svg>
