<svg width="60" height="39" viewBox="0 0 60 39" fill="none" xmlns="http://www.w3.org/2000/svg">
<g clip-path="url(#clip0_234:3503)">
<path d="M52.5029 -15.1963L64.8747 -8.05344L43.1105 29.6434L31.6193 36.6894L30.4595 36.0197L30.7386 22.5005L52.5029 -15.1963Z" stroke="#3C3C3C" stroke-width="2"/>
<path d="M62.2945 -12.1604L40.326 25.8901L62.2945 -12.1604ZM57.3457 -15.0176L35.3772 23.0329L57.3457 -15.0176Z" stroke="#3C3C3C" stroke-width="2" stroke-linecap="square"/>
<path fill-rule="evenodd" clip-rule="evenodd" d="M31.1362 31.8115C31.1362 31.8115 32.2873 31.9605 33.3698 32.5856C34.4524 33.2106 34.925 33.999 34.925 33.999L31.1106 36.23L31.1362 31.8115Z" fill="#3C3C3C"/>
<path d="M31.1371 23.0497C31.1371 23.0497 31.4349 23.2736 32.9171 23.665C34.3994 24.0565 35.4029 22.78 35.4029 22.78C35.4029 22.78 35.6192 25.225 36.9798 26.0106C38.3423 26.7973 40.4879 25.7158 40.4879 25.7158C40.4879 25.7158 40.116 27.0996 40.9643 28.3111C41.8131 29.5228 42.5876 29.6607 42.5876 29.6607" stroke="#3C3C3C" stroke-width="2"/>
<path d="M19.3368 31.8247H-13.5205H19.3368ZM30.7655 36.8247H-2.09188H30.7655Z" stroke="#3C3C3C" stroke-width="2" stroke-linecap="round"/>
</g>
<defs>
<clipPath id="clip0_234:3503">
<rect width="60" height="38.25" fill="white"/>
</clipPath>
</defs>
</svg>
