<svg width="42" height="42" viewBox="0 0 42 42" fill="none" xmlns="http://www.w3.org/2000/svg">
<path fill-rule="evenodd" clip-rule="evenodd" d="M7.20169 6.26615C3.99493 8.98096 2 12.9125 2 17.8421V21.8187C2 28.5461 4.05182 32.9986 7.21647 35.7856C10.3884 38.579 14.8274 39.8317 19.8722 39.844H20.0254H21.2729C26.3488 39.844 30.817 38.5928 34.005 35.7942C37.1696 33.0162 39.2203 28.5833 39.2203 21.8966V17.92C39.2203 12.9904 37.2254 9.05884 34.0186 6.34403C30.7962 3.61595 26.2996 2.07788 21.2729 2.07788H20.0254H19.4796V2.00446C14.642 2.0969 10.3238 3.62298 7.20169 6.26615ZM5.89464 37.2865C9.46174 40.428 14.2848 41.7655 19.4796 41.8407V41.844H19.87L19.9474 41.8441V41.844H20.0254H21.2729C26.6454 41.844 31.6509 40.522 35.3244 37.2972C39.0215 34.0518 41.2203 29.0111 41.2203 21.8966V17.92C41.2203 12.4012 38.9657 7.91173 35.3109 4.81758C31.6717 1.7367 26.6946 0.0778809 21.2729 0.0778809H20.0254H19.9474V0C14.5257 0 9.54859 1.65882 5.90942 4.7397C2.25458 7.83385 0 12.3234 0 17.8421V21.8187C0 28.9704 2.19769 34.0307 5.89464 37.2865ZM26.8089 17.6081L26.8868 17.5301C26.9011 17.5183 26.9153 17.5065 26.9294 17.4947C27.3781 17.1211 27.7469 16.8141 27.8225 16.3606C27.9005 16.2826 27.959 16.2046 28.0174 16.1266C28.0759 16.0487 28.1344 15.9707 28.2124 15.8927C27.6666 16.1266 27.0428 16.2826 26.419 16.3606C27.1208 15.8927 27.5886 15.3469 27.8225 14.5672H27.7445C27.1987 14.8791 26.497 15.113 25.8732 15.2689C25.7952 15.2689 25.7952 15.2689 25.7172 15.191C24.9375 14.4112 24.0018 14.0993 22.9102 14.2553C21.9746 14.4112 21.2728 14.957 20.727 15.7368C20.3371 16.3606 20.1812 17.0623 20.2592 17.842C20.3371 17.998 20.3371 18.076 20.3371 18.2319C17.6861 18.076 15.4248 16.9064 13.7094 14.8791C13.3196 15.5808 13.2416 16.3606 13.3976 17.2183C13.5535 17.998 14.0213 18.6997 14.7231 19.1676C14.2553 19.1676 13.7874 19.0116 13.3196 18.7777C13.3196 19.4015 13.4755 19.9473 13.7874 20.4931C14.2553 21.2728 14.957 21.7407 15.8927 21.9746H15.8147C15.3469 22.1305 14.879 22.1305 14.4112 22.0526C14.7231 23.0662 15.7367 24.2358 17.4521 24.3138C16.9843 24.7036 16.4385 25.0155 15.8927 25.2494C14.879 25.7173 13.7874 25.8732 12.6958 25.7173L12.7738 25.7953C14.3332 26.8089 16.0486 27.2767 17.92 27.1988C18.1214 27.1736 18.3147 27.1565 18.5051 27.1397C18.9044 27.1045 19.291 27.0704 19.7133 26.9648C21.4287 26.575 22.9102 25.7173 24.1578 24.4697C24.8595 23.69 25.4054 22.8323 25.8732 21.8966C26.341 20.9609 26.5749 20.0253 26.7309 19.0116C26.8089 18.5438 26.8089 18.076 26.8089 17.6081Z" fill="black"/>
</svg>
