<svg width="42" height="43" viewBox="0 0 42 43" fill="none" xmlns="http://www.w3.org/2000/svg">
<path fill-rule="evenodd" clip-rule="evenodd" d="M7.31214 6.35567C4.03717 9.12823 2 13.1435 2 18.1769V22.2326C2 29.098 4.09406 33.645 7.32692 36.4921C10.5828 39.3594 15.1443 40.6362 20.3241 40.6362V40.6362H20.4036H21.6759C26.8557 40.6362 31.4181 39.3595 34.6743 36.501C37.9071 33.6632 40 29.1361 40 22.3122V18.2565C40 13.2231 37.9628 9.20782 34.6879 6.43526C31.3972 3.64943 26.8065 2.07959 21.6759 2.07959H20.4036H19.8469V2.00455C14.9092 2.09883 10.5004 3.65649 7.31214 6.35567ZM6.00509 37.993C9.63835 41.1927 14.552 42.5561 19.8469 42.6327V42.6362H20.4036H21.6759C27.1522 42.6362 32.2519 41.2888 35.9937 38.0041C39.759 34.6988 42 29.5639 42 22.3122V18.2565C42 12.6339 39.7032 8.06071 35.9801 4.90881C32.2728 1.77018 27.2014 0.0795898 21.6759 0.0795898H20.4036H20.3241V0C14.7986 0 9.72724 1.69059 6.01987 4.82922C2.29683 7.98112 0 12.5543 0 18.1769V22.2326C0 29.5223 2.23993 34.6771 6.00509 37.993ZM25.8908 15.3141V12.2922C25.7317 12.2525 25.5727 12.2326 25.4136 12.2127C25.2546 12.1928 25.0955 12.1729 24.9365 12.1332H23.187C22.2327 12.2127 21.358 12.3717 20.6422 12.9284C19.7675 13.5646 19.2904 14.4393 19.1313 15.4731C19.0518 15.8707 19.0518 16.3479 19.0518 16.7455V16.7455V18.7336V18.9721H16.189V22.3121H19.0518V30.8211H22.5508V22.3916H25.4136C25.4931 21.2783 25.6522 20.165 25.8112 19.0517H25.175H22.4713V16.666C22.5508 15.6322 23.1075 15.3141 23.9027 15.3141H25.6522H25.8908Z" fill="black"/>
</svg>
