<svg width="42" height="42" viewBox="0 0 42 42" fill="none" xmlns="http://www.w3.org/2000/svg">
<path fill-rule="evenodd" clip-rule="evenodd" d="M7.4224 6.26615C4.21563 8.98096 2.2207 12.9125 2.2207 17.8421V21.8187C2.2207 28.5461 4.27252 32.9986 7.43717 35.7856C10.6091 38.579 15.0481 39.8317 20.0929 39.844H20.2461H21.4936C26.5695 39.844 31.0377 38.5928 34.2257 35.7942C37.3903 33.0162 39.441 28.5833 39.441 21.8966V17.92C39.441 12.9904 37.4461 9.05884 34.2393 6.34403C31.0169 3.61595 26.5203 2.07788 21.4936 2.07788H20.2461H19.7003V2.00446C14.8627 2.0969 10.5445 3.62298 7.4224 6.26615ZM6.11534 37.2865C9.68244 40.428 14.5055 41.7655 19.7003 41.8407V41.844H20.0907L20.1681 41.8441V41.844H20.2461H21.4936C26.8661 41.844 31.8716 40.522 35.5452 37.2972C39.2422 34.0518 41.441 29.0111 41.441 21.8966V17.92C41.441 12.4012 39.1864 7.91173 35.5316 4.81758C31.8924 1.7367 26.9153 0.0778809 21.4936 0.0778809H20.2461H20.1681V0C14.7464 0 9.76929 1.65882 6.13012 4.7397C2.47529 7.83385 0.220703 12.3234 0.220703 17.8421V21.8187C0.220703 28.9704 2.41839 34.0307 6.11534 37.2865ZM27.7314 13.7095C28.5891 14.4892 29.0569 15.5028 29.1349 16.5944C29.2909 17.92 29.4468 24.2358 29.0569 25.7173C28.5111 27.5886 27.2636 28.7582 25.3142 29.0701C23.8328 29.304 17.2831 29.304 15.9575 28.9921C14.0082 28.5243 12.8386 27.2767 12.5267 25.3274C12.2928 23.9239 12.2148 17.2182 12.6047 15.8147C13.1505 13.9434 14.3981 12.8518 16.2694 12.5399C17.9848 12.228 22.6632 12.3059 24.6125 12.4619C25.7821 12.5399 26.8737 12.8518 27.7314 13.7095ZM24.8464 27.5886C26.4059 27.4327 27.3415 26.497 27.5755 25.0155C27.8094 23.534 27.8094 18.1539 27.6534 16.6724C27.4975 15.113 26.5618 14.1773 25.0803 13.9434C23.5988 13.7874 18.2187 13.7874 16.7372 13.9434C15.2558 14.0993 14.3201 15.035 14.0862 16.5165C13.8523 18.0759 13.9302 23.9239 14.0862 25.0935C14.2421 26.341 14.9439 27.1208 16.1135 27.4327C17.361 27.8225 23.5209 27.7445 24.8464 27.5886ZM16.4254 20.805C16.4254 18.3878 18.3747 16.4385 20.7918 16.4385C23.209 16.4385 25.1583 18.3878 25.1583 20.805C25.1583 23.2221 23.209 25.1714 20.7918 25.1714C18.3747 25.1714 16.4254 23.2221 16.4254 20.805ZM17.9848 20.805C17.9848 22.3644 19.2324 23.612 20.7918 23.612C22.3513 23.612 23.5988 22.3644 23.5988 20.805C23.5988 19.2455 22.3513 17.998 20.7918 17.998C19.2324 17.998 17.9848 19.2455 17.9848 20.805ZM25.3142 17.2962C25.8601 17.2962 26.3279 16.8284 26.3279 16.2826C26.3279 15.7367 25.938 15.2689 25.3142 15.2689C24.7684 15.2689 24.3006 15.7367 24.3006 16.2826C24.3006 16.8284 24.7684 17.2962 25.3142 17.2962Z" fill="black"/>
</svg>
