<svg width="20" height="20" viewBox="0 0 20 20" fill="none" xmlns="http://www.w3.org/2000/svg">
<path fill-rule="evenodd" clip-rule="evenodd" d="M6.75 5.75C6.75 4.88805 7.09241 4.0614 7.7019 3.4519C8.3114 2.84241 9.13805 2.5 10 2.5C10.862 2.5 11.6886 2.84241 12.2981 3.4519C12.9076 4.0614 13.25 4.88805 13.25 5.75V6H14.75V5.75C14.75 4.49022 14.2496 3.28204 13.3588 2.39124C12.468 1.50044 11.2598 1 10 1C8.74022 1 7.53204 1.50044 6.64124 2.39124C5.75045 3.28204 5.25 4.49022 5.25 5.75V8H3V19H17V8H6.75V5.75ZM4.5 17.5H15.5V9.5H4.5V17.5ZM9 13.5C9 13.2348 9.10536 12.9804 9.29289 12.7929C9.48043 12.6054 9.73478 12.5 10 12.5C10.2652 12.5 10.5196 12.6054 10.7071 12.7929C10.8946 12.9804 11 13.2348 11 13.5C11 13.7652 10.8946 14.0196 10.7071 14.2071C10.5196 14.3946 10.2652 14.5 10 14.5C9.73478 14.5 9.48043 14.3946 9.29289 14.2071C9.10536 14.0196 9 13.7652 9 13.5Z" fill="#3C3C3C"/>
</svg>
