<svg width="24" height="18" viewBox="0 0 24 18" fill="none" xmlns="http://www.w3.org/2000/svg">
<path d="M24 0H0V16.5H24V0Z" fill="#EEF3F8"/>
<path d="M13.5 0H0V10.5H13.5V0Z" fill="#41479B"/>
<path d="M24 0H13.5V1.5H24V0Z" fill="#DC251C"/>
<path d="M24 3H13.5V4.5H24V3Z" fill="#DC251C"/>
<path d="M24 6H13.5V7.5H24V6Z" fill="#DC251C"/>
<path d="M24 9H13.5V10.5H24V9Z" fill="#DC251C"/>
<path d="M24 12H0V13.5H24V12Z" fill="#DC251C"/>
<path d="M24 15H0V16.5H24V15Z" fill="#DC251C"/>
<path d="M3 1.5H1.5V3H3V1.5Z" fill="#C5D0EC"/>
<path d="M6 1.5H4.5V3H6V1.5Z" fill="#C5D0EC"/>
<path d="M9 1.5H7.5V3H9V1.5Z" fill="#C5D0EC"/>
<path d="M12 1.5H10.5V3H12V1.5Z" fill="#C5D0EC"/>
<path d="M3 4.5H1.5V6H3V4.5Z" fill="#C5D0EC"/>
<path d="M6 4.5H4.5V6H6V4.5Z" fill="#C5D0EC"/>
<path d="M9 4.5H7.5V6H9V4.5Z" fill="#C5D0EC"/>
<path d="M4.5 6H3V7.5H4.5V6Z" fill="#C5D0EC"/>
<path d="M7.5 6H6V7.5H7.5V6Z" fill="#C5D0EC"/>
<path d="M10.5 6H9V7.5H10.5V6Z" fill="#C5D0EC"/>
<path d="M4.5 3H3V4.5H4.5V3Z" fill="#C5D0EC"/>
<path d="M7.5 3H6V4.5H7.5V3Z" fill="#C5D0EC"/>
<path d="M10.5 3H9V4.5H10.5V3Z" fill="#C5D0EC"/>
<path d="M12 4.5H10.5V6H12V4.5Z" fill="#C5D0EC"/>
<path d="M3 7.5H1.5V9H3V7.5Z" fill="#C5D0EC"/>
<path d="M6 7.5H4.5V9H6V7.5Z" fill="#C5D0EC"/>
<path d="M9 7.5H7.5V9H9V7.5Z" fill="#C5D0EC"/>
<path d="M12 7.5H10.5V9H12V7.5Z" fill="#C5D0EC"/>
</svg>
