<svg width="32" height="32" viewBox="0 0 32 32" fill="none" xmlns="http://www.w3.org/2000/svg">
<path fill-rule="evenodd" clip-rule="evenodd" d="M16 0C7.16344 0 0 7.16344 0 16C0 24.8366 7.16344 32 16 32C24.8366 32 32 24.8366 32 16C32 7.16344 24.8366 0 16 0ZM17.3027 21.0508C17.1449 21.2171 16.8369 21.2507 16.8369 21.2507H15.8169C15.8169 21.2507 13.5664 21.3835 11.5839 19.358C9.42199 17.1481 7.51296 12.7637 7.51296 12.7637C7.51296 12.7637 7.40278 12.4761 7.52214 12.3376C7.65653 12.1811 8.02298 12.1713 8.02298 12.1713L10.4612 12.1557C10.4612 12.1557 10.6908 12.1926 10.8552 12.3114C10.9913 12.4097 11.0672 12.5924 11.0672 12.5924C11.0672 12.5924 11.4612 13.5708 11.9829 14.4557C13.0022 16.1837 13.4763 16.5615 13.8219 16.3763C14.326 16.1067 14.175 13.9338 14.175 13.9338C14.175 13.9338 14.1841 13.1455 13.9212 12.794C13.7175 12.522 13.3335 12.4425 13.1641 12.4204C13.0264 12.4023 13.2517 12.0893 13.5439 11.9492C13.983 11.7387 14.7576 11.7264 15.6733 11.7354C16.387 11.7428 16.5923 11.7862 16.8711 11.8526C17.5182 12.0058 17.498 12.497 17.4544 13.5571C17.4414 13.8742 17.4262 14.2421 17.4262 14.6671C17.4262 14.7626 17.4234 14.8644 17.4205 14.9691C17.4053 15.5122 17.388 16.1342 17.7526 16.3656C17.9396 16.4836 18.3962 16.3828 19.5389 14.4786C20.0807 13.5757 20.4864 12.5146 20.4864 12.5146C20.4864 12.5146 20.5757 12.3253 20.7134 12.2442C20.8545 12.1615 21.0448 12.1869 21.0448 12.1869L23.6108 12.1713C23.6108 12.1713 24.382 12.0803 24.5064 12.4228C24.6375 12.7809 24.2184 13.6183 23.17 14.9899C22.1755 16.2914 21.6915 16.7706 21.7359 17.1943C21.7684 17.504 22.083 17.7841 22.6867 18.3338C23.947 19.4823 24.2848 20.0866 24.3659 20.2318C24.3727 20.2438 24.3776 20.2527 24.3812 20.2585C24.9463 21.1786 23.7543 21.2507 23.7543 21.2507L21.4747 21.2819C21.4747 21.2819 20.9855 21.3769 20.3411 20.9426C20.0035 20.7154 19.6737 20.3441 19.3595 19.9905C18.8797 19.4506 18.4364 18.9517 18.0581 19.0696C17.4229 19.2678 17.4421 20.6108 17.4421 20.6108C17.4421 20.6108 17.4471 20.8984 17.3027 21.0508Z" fill="#232323"/>
</svg>
