<svg width="230" height="44" fill="none" xmlns="http://www.w3.org/2000/svg"><g clip-path="url(#clip0_226:2728)"><path d="M115.379.333h99.087v43.334h-99.087V.333z" fill="#F7F9FC" stroke="url(#paint0_linear_226:2728)"/><path d="M128.88 29.778a.552.552 0 01-.383-.156.604.604 0 01-.15-.4V14.778c0-.163.05-.296.15-.4a.552.552 0 01.383-.156h2.263c.355 0 .597.14.726.423l5.208 8.533v-8.4c0-.163.049-.296.149-.4a.557.557 0 01.385-.156h2.56a.51.51 0 01.385.156c.1.104.149.237.149.4V29.2a.633.633 0 01-.149.422.51.51 0 01-.385.156h-2.283c-.313 0-.548-.14-.704-.422l-5.209-8.223v8.09c0 .147-.05.28-.149.4a.509.509 0 01-.384.155h-2.562zm16.409 0a.556.556 0 01-.384-.156.603.603 0 01-.149-.4V14.778c0-.163.049-.296.149-.4a.556.556 0 01.384-.156h9.968a.51.51 0 01.384.156.556.556 0 01.149.4v2.089a.61.61 0 01-.149.4.51.51 0 01-.384.155h-6.809v3h6.339c.157 0 .285.06.384.178.1.104.15.237.15.4v1.933c0 .148-.05.282-.15.4a.507.507 0 01-.384.156h-6.339v3.089h6.98c.156 0 .284.052.383.155.1.104.15.237.15.4v2.09a.61.61 0 01-.15.4.506.506 0 01-.383.155h-10.139zm16.556 0c-.242 0-.434-.067-.577-.2a.939.939 0 01-.256-.534l-2.326-14.2a.49.49 0 01-.021-.155c0-.119.042-.222.127-.311a.443.443 0 01.321-.156h2.647c.398 0 .618.163.661.49l1.388 8.666 1.536-5.111c.157-.4.392-.6.705-.6h1.537c.355 0 .59.2.704.6l1.537 5.11 1.387-8.666c.042-.326.263-.489.662-.489h2.646c.128 0 .235.052.32.156.1.089.15.192.15.31l-.021.156-2.327 14.2a.877.877 0 01-.278.534.777.777 0 01-.554.2h-2.028c-.228 0-.406-.06-.534-.178a1.062 1.062 0 01-.277-.4l-2.156-6.355-2.155 6.355c-.129.385-.392.578-.791.578h-2.027zm21.902.222c-1.352 0-2.512-.207-3.479-.622-.968-.415-1.701-.956-2.198-1.622a4.02 4.02 0 01-.769-2.223c0-.118.043-.222.128-.31a.462.462 0 01.342-.156h2.689c.171 0 .306.037.405.11.114.06.228.156.342.29.185.385.484.703.897.955.412.252.96.378 1.643.378.811 0 1.43-.133 1.857-.4.427-.267.64-.63.64-1.089 0-.326-.114-.593-.341-.8-.214-.207-.555-.392-1.025-.555-.469-.163-1.166-.349-2.091-.556-1.708-.37-2.989-.911-3.843-1.622-.839-.726-1.259-1.756-1.259-3.09 0-.903.242-1.71.726-2.421.484-.711 1.174-1.267 2.07-1.667.897-.4 1.943-.6 3.138-.6 1.238 0 2.313.222 3.223.667.91.444 1.601 1.007 2.07 1.688.484.667.74 1.326.769 1.978a.46.46 0 01-.129.334.424.424 0 01-.319.133h-2.818a.918.918 0 01-.427-.089.867.867 0 01-.277-.289c-.086-.34-.321-.63-.705-.867-.37-.236-.832-.355-1.387-.355-.64 0-1.132.119-1.473.355-.342.238-.512.586-.512 1.045 0 .311.093.57.278.778.198.207.512.4.939.578.44.163 1.067.333 1.878.51 1.323.252 2.376.571 3.159.956.797.37 1.38.86 1.75 1.467.37.592.555 1.34.555 2.244 0 .993-.277 1.86-.833 2.6-.54.726-1.302 1.29-2.283 1.69-.968.384-2.078.577-3.33.577z" fill="#3C3C3C"/><path d="M200.168 7.667h28.595v28.666h-28.595V7.667z" fill="url(#paint1_linear_226:2728)"/><path d="M200.168 7.667h28.595v28.666h-28.595V7.667z" fill="url(#paint2_linear_226:2728)"/><path d="M206.756 26a.277.277 0 01-.194-.08.312.312 0 01-.076-.206v-7.428c0-.084.025-.153.076-.206a.277.277 0 01.194-.08h1.167c.173 0 .299.084.378.251l1.902 3.6 1.902-3.6c.079-.167.205-.251.378-.251h1.156c.079 0 .144.027.194.08a.266.266 0 01.086.206v7.428a.266.266 0 01-.086.206.254.254 0 01-.194.08h-1.286a.289.289 0 01-.205-.08.285.285 0 01-.076-.206V21.43l-1.21 2.388c-.093.175-.22.263-.378.263h-.562a.352.352 0 01-.227-.069.576.576 0 01-.151-.194l-1.221-2.388v4.285a.317.317 0 01-.076.206.254.254 0 01-.194.08h-1.297zm9.488 0a.28.28 0 01-.195-.08.316.316 0 01-.075-.206v-7.428a.29.29 0 01.075-.206.281.281 0 01.195-.08h2.809c1.059 0 1.88.267 2.464.8.583.533.889 1.307.918 2.32.008.221.011.514.011.88s-.003.655-.011.869c-.036 1.059-.335 1.847-.897 2.365-.554.51-1.364.766-2.431.766h-2.863zm2.809-1.646c.476 0 .825-.118 1.048-.354.224-.244.343-.629.357-1.154.014-.221.022-.507.022-.857s-.008-.633-.022-.846c-.014-.51-.144-.888-.389-1.132-.238-.243-.594-.365-1.07-.365h-1.08v4.708h1.134z" fill="#fff"/><path d="M200.168 7.667h28.595v28.666h-28.595V7.667z" stroke="#fff"/><path d="M0 26.667C0 11.939 13.379 0 29.882 0h85.165v44H0V26.667z" fill="url(#paint3_linear_226:2728)"/><path d="M21.018 17.916c-1.092 0-1.97.396-2.636 1.187-.665.776-.997 1.725-.997 2.85 0 1.076.3 1.986.902 2.73.602.744 1.417 1.14 2.446 1.187v-1.78h-1.448v-1.924h3.182v5.651h-1.449c-1.646 0-2.96-.578-3.942-1.733-.95-1.092-1.425-2.47-1.425-4.131 0-1.663.475-3.056 1.425-4.18.982-1.187 2.296-1.78 3.942-1.78h3.8v1.923h-3.8zm0 12.537c-2.359 0-4.259-.879-5.7-2.636-1.345-1.646-2.018-3.672-2.018-6.078 0-2.39.68-4.361 2.042-5.913 1.425-1.63 3.317-2.445 5.676-2.445h3.8v1.923h-3.8c-1.836 0-3.293.61-4.37 1.828-1.076 1.203-1.614 2.739-1.614 4.607 0 1.883.522 3.466 1.567 4.749 1.124 1.36 2.597 2.042 4.417 2.042h2.066v-6.863h-3.8v-1.923h5.534v10.709h-3.8zm11.187-12.537v1.59h3.04v1.924H30.47v-5.437h5.391v1.923h-3.657zm-4.061 12.537V13.38h7.718v1.923h-5.985V28.53h5.985v1.923h-7.718zm2.327-2.636v-5.65h4.774v1.922h-3.04v1.805h3.657v1.923h-5.391zm20.021 2.85c-.792 0-1.48-.42-2.066-1.259l-5.13-7.384v8.429H41.54v-13.89c1.836 2.643 4.6 6.545 8.288 11.706.222.3.388.45.499.45.079 0 .142-.19.19-.57.016-.205.024-.482.024-.83V13.38h1.757v14.793c0 .633-.127 1.179-.38 1.638-.333.57-.808.855-1.425.855zM41.8 15.755c-.238-.316-.467-.475-.689-.475-.11 0-.166.127-.166.38v14.793h-1.758V15.66c0-.633.15-1.163.452-1.59.332-.491.815-.737 1.448-.737.808 0 1.465.372 1.972 1.116l5.13 7.361v-8.43h1.733v13.891L41.8 15.755zm17.883 2.161v1.59h3.04v1.924H57.95v-5.437h5.39v1.923h-3.657zm-4.06 12.537V13.38h7.718v1.923h-5.985V28.53h5.984v1.923h-7.718zm2.327-2.636v-5.65h4.773v1.922h-3.04v1.805h3.657v1.923h-5.39zm19.687 2.636l-5.391-6.031c1.536-.428 2.644-.95 3.325-1.567.84-.744 1.259-1.797 1.259-3.158 0-1.457-.515-2.572-1.544-3.348-.918-.697-2.138-1.045-3.657-1.045h-3.206v15.149h-1.758V13.38h4.964c1.979 0 3.617.562 4.915 1.686 1.394 1.187 2.09 2.754 2.09 4.701a6.4 6.4 0 01-.855 3.23 5.801 5.801 0 01-2.303 2.279l4.679 5.176h-2.518zm-3.491 0a326.42 326.42 0 01-3.373-3.776v3.776H69.04v-14.46h2.968c1.156 0 2.122.324 2.898.973.807.697 1.21 1.623 1.21 2.778 0 .744-.197 1.44-.592 2.09a3.388 3.388 0 01-1.616 1.4c-.19.08-.839.19-1.947.333-.522.063-.784.222-.784.475 0 .237.174.554.523.95l4.868 5.46h-2.422zm-2.138-12.537h-1.234v4.108c.19-.143.514-.262.973-.357.349-.047.697-.102 1.045-.166 1.077-.221 1.615-.807 1.615-1.757 0-.585-.253-1.044-.76-1.377-.443-.3-.99-.451-1.639-.451zM85.76 30.453V13.38h1.663v17.072h-1.662zm-2.28 0V13.38h1.687v17.072H83.48zm14.94-2.636c-1.616 0-2.922-.578-3.92-1.733-.934-1.092-1.4-2.47-1.4-4.131 0-1.663.466-3.048 1.4-4.156.998-1.203 2.304-1.804 3.92-1.804h2.849v1.923h-2.85c-1.092 0-1.963.396-2.612 1.187-.65.776-.974 1.725-.974 2.85 0 1.14.325 2.081.974 2.825.649.744 1.52 1.116 2.613 1.116h2.849v1.923h-2.85zm0 2.636c-2.328 0-4.212-.886-5.653-2.66-1.346-1.646-2.019-3.664-2.019-6.054s.681-4.361 2.043-5.913c1.41-1.63 3.285-2.445 5.629-2.445h2.849v1.923h-2.85c-1.82 0-3.27.61-4.346 1.828-1.06 1.203-1.591 2.739-1.591 4.607 0 1.883.522 3.466 1.567 4.749 1.109 1.36 2.565 2.042 4.37 2.042h2.85v1.923h-2.85z" fill="#fff"/></g><defs><linearGradient id="paint0_linear_226:2728" x1="208.619" y1="4.693" x2="120.646" y2="-20.13" gradientUnits="userSpaceOnUse"><stop stop-color="#313545"/><stop offset="1" stop-color="#121118"/></linearGradient><linearGradient id="paint1_linear_226:2728" x1="226.992" y1="10.724" x2="200.179" y2="7.395" gradientUnits="userSpaceOnUse"><stop stop-color="#313545"/><stop offset="1" stop-color="#121118"/></linearGradient><linearGradient id="paint2_linear_226:2728" x1="226.992" y1="10.724" x2="200.179" y2="7.395" gradientUnits="userSpaceOnUse"><stop stop-color="#313545"/><stop offset="1" stop-color="#121118"/></linearGradient><linearGradient id="paint3_linear_226:2728" x1="107.92" y1="4.693" x2="8.869" y2="-27.541" gradientUnits="userSpaceOnUse"><stop stop-color="#313545"/><stop offset="1" stop-color="#121118"/></linearGradient><clipPath id="clip0_226:2728"><path fill="#fff" d="M0 0h229.429v44H0z"/></clipPath></defs></svg>