<svg width="230" height="44" fill="none" xmlns="http://www.w3.org/2000/svg"><g clip-path="url(#clip0_616:2916)"><path d="M115.379.333h99.086v43.334h-99.086V.333z" fill="#F7F9FC" stroke="url(#paint0_linear_616:2916)"/><path d="M128.88 29.778a.556.556 0 01-.384-.156.608.608 0 01-.149-.4V14.778c0-.163.05-.297.149-.4a.556.556 0 01.384-.156h2.263c.355 0 .597.14.726.422l5.207 8.534v-8.4c0-.163.05-.297.15-.4a.556.556 0 01.384-.156h2.561a.51.51 0 01.385.156.556.556 0 01.149.4V29.2c0 .163-.05.304-.149.422a.51.51 0 01-.385.156h-2.283c-.314 0-.548-.141-.705-.422l-5.208-8.223v8.09c0 .147-.05.28-.149.4a.51.51 0 01-.384.155h-2.562zm16.409 0a.556.556 0 01-.384-.156.608.608 0 01-.149-.4V14.778c0-.163.05-.297.149-.4a.556.556 0 01.384-.156h9.968c.156 0 .285.052.384.156a.556.556 0 01.149.4v2.089a.61.61 0 01-.149.4.508.508 0 01-.384.155h-6.809v3h6.34c.156 0 .284.06.383.178.1.104.15.237.15.4v1.933c0 .148-.05.282-.15.4a.506.506 0 01-.383.156h-6.34v3.089h6.98a.51.51 0 01.384.155.556.556 0 01.149.4v2.09c0 .147-.05.28-.149.4a.509.509 0 01-.384.155h-10.139zm16.556 0c-.242 0-.434-.067-.576-.2a.927.927 0 01-.256-.534l-2.327-14.2a.519.519 0 01-.021-.155c0-.119.043-.222.128-.311a.44.44 0 01.32-.156h2.647c.398 0 .618.163.662.49l1.387 8.666 1.537-5.111c.156-.4.391-.6.704-.6h1.537c.356 0 .59.2.704.6l1.537 5.11 1.387-8.666c.043-.326.263-.489.662-.489h2.647c.127 0 .234.052.319.156.1.089.15.192.15.31l-.021.156-2.327 14.2a.876.876 0 01-.277.534.781.781 0 01-.555.2h-2.028c-.228 0-.405-.06-.534-.178a1.075 1.075 0 01-.277-.4l-2.156-6.356-2.155 6.356c-.129.385-.392.578-.79.578h-2.028zm21.902.222c-1.352 0-2.512-.207-3.48-.622-.967-.415-1.7-.956-2.197-1.622a4.004 4.004 0 01-.769-2.223.43.43 0 01.128-.31.461.461 0 01.341-.156h2.69c.17 0 .305.037.405.11.114.06.228.156.342.29.185.385.484.703.896.955.413.252.961.378 1.644.378.811 0 1.429-.133 1.856-.4.427-.267.641-.63.641-1.089 0-.326-.114-.593-.341-.8-.214-.207-.556-.392-1.025-.555-.47-.163-1.167-.349-2.092-.556-1.707-.37-2.988-.911-3.842-1.622-.839-.726-1.259-1.756-1.259-3.09 0-.903.242-1.71.726-2.421.484-.711 1.173-1.267 2.07-1.667.896-.4 1.942-.6 3.137-.6 1.239 0 2.313.222 3.224.667.91.444 1.6 1.007 2.07 1.688.484.667.74 1.326.769 1.978a.46.46 0 01-.129.334.425.425 0 01-.32.133h-2.817a.918.918 0 01-.427-.089.878.878 0 01-.278-.289c-.085-.34-.32-.63-.704-.867-.37-.236-.832-.355-1.388-.355-.639 0-1.131.119-1.472.355-.342.238-.512.586-.512 1.045 0 .311.092.57.277.778.199.207.512.4.939.578.441.163 1.068.333 1.878.51 1.324.252 2.377.571 3.16.956.796.37 1.38.86 1.75 1.467.37.593.555 1.34.555 2.244 0 .993-.278 1.86-.833 2.6-.541.726-1.302 1.29-2.284 1.69-.967.384-2.077.577-3.329.577z" fill="#3C3C3C"/><path d="M200.168 7.667h28.595v28.666h-28.595V7.667z" fill="url(#paint1_linear_616:2916)"/><path d="M200.168 7.667h28.595v28.666h-28.595V7.667z" fill="url(#paint2_linear_616:2916)"/><path d="M206.755 26a.279.279 0 01-.194-.08.317.317 0 01-.076-.206v-7.428a.29.29 0 01.076-.206.279.279 0 01.194-.08h1.167c.173 0 .299.084.379.251l1.901 3.6 1.902-3.6c.079-.167.206-.251.378-.251h1.156c.079 0 .145.027.194.08a.267.267 0 01.087.206v7.428a.267.267 0 01-.087.206.253.253 0 01-.194.08h-1.285a.291.291 0 01-.206-.08.29.29 0 01-.076-.206V21.43l-1.21 2.388c-.093.175-.219.263-.378.263h-.562a.352.352 0 01-.226-.069.58.58 0 01-.152-.194l-1.221-2.388v4.285a.312.312 0 01-.076.206.254.254 0 01-.194.08h-1.297zm9.489 0a.28.28 0 01-.195-.08.31.31 0 01-.075-.206v-7.428c0-.084.024-.153.075-.206a.28.28 0 01.195-.08h2.809c1.058 0 1.88.267 2.463.8.584.533.89 1.307.919 2.32.007.22.01.514.01.88s-.003.655-.01.869c-.036 1.059-.335 1.847-.897 2.365-.555.51-1.365.766-2.432.766h-2.862zm2.809-1.646c.475 0 .824-.118 1.048-.354.223-.244.342-.629.356-1.154.015-.221.022-.507.022-.857s-.007-.633-.022-.846c-.014-.51-.144-.888-.389-1.132-.237-.243-.594-.365-1.069-.365h-1.081v4.708h1.135z" fill="#fff"/><path d="M200.168 7.667h28.595v28.666h-28.595V7.667z" stroke="#fff"/><path d="M0 26.667C0 11.939 13.379 0 29.882 0h85.165v44H0V26.667z" fill="url(#paint3_linear_616:2916)"/><path d="M21.018 17.916c-1.092 0-1.97.396-2.636 1.187-.665.776-.997 1.726-.997 2.85 0 1.076.3 1.986.902 2.73.602.744 1.417 1.14 2.446 1.187v-1.78h-1.448v-1.924h3.182v5.651h-1.449c-1.646 0-2.96-.577-3.942-1.733-.95-1.092-1.425-2.47-1.425-4.131 0-1.662.475-3.055 1.425-4.18.982-1.187 2.296-1.78 3.942-1.78h3.8v1.923h-3.8zm0 12.537c-2.359 0-4.259-.878-5.7-2.636-1.345-1.646-2.018-3.672-2.018-6.078 0-2.39.68-4.361 2.042-5.913 1.425-1.63 3.317-2.445 5.676-2.445h3.8v1.923h-3.8c-1.836 0-3.293.61-4.37 1.829-1.076 1.203-1.614 2.738-1.614 4.606 0 1.884.522 3.466 1.567 4.749 1.124 1.361 2.597 2.042 4.417 2.042h2.066v-6.862h-3.8v-1.924h5.534v10.71h-3.8zm11.187-12.537v1.59h3.04v1.924H30.47v-5.437h5.391v1.923h-3.657zm-4.061 12.537V13.381h7.718v1.923h-5.985V28.53h5.985v1.923h-7.718zm2.327-2.636v-5.65h4.774v1.922h-3.04v1.805h3.657v1.923h-5.391zm20.021 2.85c-.792 0-1.48-.42-2.066-1.259l-5.13-7.384v8.43H41.54V16.562c1.836 2.643 4.6 6.545 8.288 11.706.222.3.388.45.499.45.079 0 .142-.19.19-.569.016-.206.024-.483.024-.831V13.38h1.757v14.793c0 .633-.127 1.179-.38 1.638-.333.57-.808.855-1.425.855zM41.8 15.755c-.238-.316-.467-.475-.689-.475-.11 0-.166.127-.166.38v14.793h-1.758V15.66c0-.633.15-1.163.452-1.59.332-.491.815-.736 1.448-.736.808 0 1.465.372 1.972 1.116l5.13 7.36v-8.429h1.733v13.89L41.8 15.755zm17.883 2.161v1.59h3.04v1.924H57.95v-5.437h5.39v1.923h-3.657zm-4.06 12.537V13.381h7.718v1.923h-5.985V28.53h5.984v1.923h-7.718zm2.327-2.636v-5.65h4.773v1.922h-3.04v1.805h3.657v1.923h-5.39zm19.687 2.636l-5.391-6.031c1.536-.427 2.644-.95 3.325-1.567.84-.744 1.259-1.797 1.259-3.158 0-1.456-.515-2.572-1.544-3.348-.918-.697-2.138-1.045-3.657-1.045h-3.206v15.15h-1.758V13.38h4.964c1.979 0 3.617.562 4.915 1.686 1.394 1.187 2.09 2.754 2.09 4.701a6.4 6.4 0 01-.855 3.23 5.801 5.801 0 01-2.303 2.279l4.679 5.176h-2.518zm-3.491 0c-.823-.902-1.947-2.16-3.373-3.775v3.775H69.04v-14.46h2.968c1.156 0 2.122.324 2.898.973.807.697 1.21 1.623 1.21 2.778 0 .744-.197 1.44-.592 2.09a3.388 3.388 0 01-1.616 1.4c-.19.08-.839.19-1.947.333-.522.064-.784.222-.784.475 0 .237.174.554.523.95l4.868 5.461h-2.422zm-2.138-12.537h-1.234v4.108c.19-.143.514-.261.973-.356a24.22 24.22 0 001.045-.166c1.077-.222 1.615-.808 1.615-1.758 0-.585-.253-1.044-.76-1.377-.443-.3-.99-.45-1.639-.45zM85.76 30.453V13.381h1.663v17.072h-1.662zm-2.28 0V13.381h1.687v17.072H83.48zm14.94-2.636c-1.616 0-2.922-.577-3.92-1.733-.934-1.092-1.4-2.47-1.4-4.131 0-1.662.466-3.048 1.4-4.156.998-1.203 2.304-1.804 3.92-1.804h2.849v1.923h-2.85c-1.092 0-1.963.396-2.612 1.187-.65.776-.974 1.726-.974 2.85 0 1.14.325 2.081.974 2.825.649.744 1.52 1.116 2.613 1.116h2.849v1.923h-2.85zm0 2.636c-2.328 0-4.212-.886-5.653-2.66-1.346-1.646-2.019-3.664-2.019-6.054s.681-4.361 2.043-5.913c1.41-1.63 3.285-2.445 5.629-2.445h2.849v1.923h-2.85c-1.82 0-3.27.61-4.346 1.829-1.06 1.203-1.591 2.738-1.591 4.606 0 1.884.522 3.466 1.567 4.749 1.109 1.361 2.565 2.042 4.37 2.042h2.85v1.923h-2.85z" fill="#fff"/></g><defs><linearGradient id="paint0_linear_616:2916" x1="208.619" y1="4.694" x2="120.645" y2="-20.13" gradientUnits="userSpaceOnUse"><stop stop-color="#313545"/><stop offset="1" stop-color="#121118"/></linearGradient><linearGradient id="paint1_linear_616:2916" x1="226.992" y1="10.724" x2="200.179" y2="7.395" gradientUnits="userSpaceOnUse"><stop stop-color="#313545"/><stop offset="1" stop-color="#121118"/></linearGradient><linearGradient id="paint2_linear_616:2916" x1="226.992" y1="10.724" x2="200.179" y2="7.395" gradientUnits="userSpaceOnUse"><stop stop-color="#313545"/><stop offset="1" stop-color="#121118"/></linearGradient><linearGradient id="paint3_linear_616:2916" x1="107.92" y1="4.693" x2="8.869" y2="-27.541" gradientUnits="userSpaceOnUse"><stop stop-color="#313545"/><stop offset="1" stop-color="#121118"/></linearGradient><clipPath id="clip0_616:2916"><path fill="#fff" d="M0 0h229.429v44H0z"/></clipPath></defs></svg>