<svg width="32" height="32" fill="none" xmlns="http://www.w3.org/2000/svg"><path fill-rule="evenodd" clip-rule="evenodd" d="M14.906 9.865s.092.468.124.473c1.697.242 2.97 1.232 2.97 2.995a3.5 3.5 0 01-3.5 3.5h-9a3.5 3.5 0 01-.499-6.964.426.426 0 01.093-.004 5.002 5.002 0 019.812 0z" fill="#F3F3F3"/><path d="M5.765 16.833C3.685 16.833 2 15.192 2 13.167c0-1.77 1.286-3.245 2.997-3.59C5.585 7.42 7.602 5.832 10 5.832c2.71 0 4.935 2.03 5.158 4.614C16.763 10.66 18 12.003 18 13.625c0 1.772-1.475 3.208-3.294 3.208H5.765z" stroke="#231815" stroke-width="2" stroke-linecap="round" stroke-linejoin="round"/><path fill-rule="evenodd" clip-rule="evenodd" d="M22.542 14.043s.123.624.164.63c2.263.322 3.96 1.642 3.96 3.994A4.667 4.667 0 0122 23.333H10a4.667 4.667 0 01-.665-9.286.572.572 0 01.123-.004 6.669 6.669 0 0113.084 0z" fill="#F3F3F3"/><path d="M10.353 23.333c-2.772 0-5.02-2.188-5.02-4.889 0-2.358 1.715-4.326 3.996-4.787.784-2.873 3.474-4.99 6.67-4.99 3.615 0 6.58 2.705 6.878 6.15 2.14.287 3.79 2.075 3.79 4.238 0 2.363-1.967 4.278-4.393 4.278H10.353z" stroke="#231815" stroke-width="2" stroke-linecap="round" stroke-linejoin="round"/></svg>