<svg width="32" height="32" fill="none" xmlns="http://www.w3.org/2000/svg"><path fill-rule="evenodd" clip-rule="evenodd" d="M22.542 14.043s.123.624.164.63c2.263.322 3.96 1.642 3.96 3.994A4.667 4.667 0 0122 23.333H10a4.667 4.667 0 01-.665-9.286.572.572 0 01.123-.004 6.669 6.669 0 0113.084 0z" fill="#F3F3F3"/><path d="M10.353 23.333c-2.772 0-5.02-2.188-5.02-4.889 0-2.358 1.715-4.326 3.996-4.787.784-2.873 3.474-4.99 6.67-4.99 3.615 0 6.58 2.705 6.878 6.15 2.14.287 3.79 2.075 3.79 4.238 0 2.363-1.967 4.278-4.393 4.278H10.353z" stroke="#231815" stroke-width="2" stroke-linecap="round" stroke-linejoin="round"/></svg>