<svg width="24" height="18" fill="none" xmlns="http://www.w3.org/2000/svg"><path d="M24 0H0v18h24V0z" fill="#41479B"/><path d="M11.933 1.636a.075.075 0 01.134 0l.356.722a.075.075 0 00.057.04l.796.117a.075.075 0 01.042.128l-.576.561a.075.075 0 00-.022.067l.136.793a.075.075 0 01-.109.079l-.712-.375a.075.075 0 00-.07 0l-.712.375a.075.075 0 01-.109-.08l.136-.792a.075.075 0 00-.021-.067l-.577-.561a.075.075 0 01.042-.128l.796-.116a.075.075 0 00.057-.041l.356-.722zm0 12a.075.075 0 01.134 0l.356.722a.075.075 0 00.057.04l.796.117a.075.075 0 01.042.128l-.576.561a.075.075 0 00-.022.067l.136.793a.075.075 0 01-.109.079l-.712-.375a.076.076 0 00-.07 0l-.712.375a.075.075 0 01-.109-.08l.136-.792a.075.075 0 00-.021-.067l-.577-.561a.075.075 0 01.042-.128l.796-.116a.075.075 0 00.057-.041l.356-.722zm-6-6a.075.075 0 01.134 0l.356.722a.073.073 0 00.057.04l.796.117a.075.075 0 01.042.128l-.576.561a.075.075 0 00-.022.067l.136.793a.075.075 0 01-.109.079l-.712-.375a.075.075 0 00-.07 0l-.712.375a.075.075 0 01-.109-.08l.136-.792a.075.075 0 00-.021-.067l-.577-.561a.075.075 0 01.042-.128l.796-.116a.075.075 0 00.057-.041l.356-.722zm12 0a.075.075 0 01.134 0l.357.722a.07.07 0 00.056.04l.796.117a.075.075 0 01.042.128l-.576.561a.075.075 0 00-.022.067l.136.793a.075.075 0 01-.109.079l-.712-.375a.075.075 0 00-.07 0l-.712.375a.075.075 0 01-.109-.08l.136-.792a.075.075 0 00-.022-.067l-.576-.561a.075.075 0 01.042-.128l.796-.116a.075.075 0 00.057-.041l.356-.722zm-3-5.196a.075.075 0 01.134 0l.357.722a.07.07 0 00.056.04l.796.116a.075.075 0 01.042.128l-.576.562a.075.075 0 00-.022.066l.136.794a.075.075 0 01-.109.079l-.712-.375a.075.075 0 00-.07 0l-.712.375a.075.075 0 01-.109-.08l.136-.793a.075.075 0 00-.021-.066l-.577-.562a.075.075 0 01.042-.128l.796-.115a.075.075 0 00.057-.041l.356-.722zm-6 10.392a.075.075 0 01.134 0l.356.722a.076.076 0 00.057.041l.796.116a.075.075 0 01.042.128l-.576.561a.075.075 0 00-.022.067l.136.793a.075.075 0 01-.109.079l-.712-.375a.075.075 0 00-.07 0l-.712.375a.075.075 0 01-.109-.079l.136-.793a.075.075 0 00-.021-.067l-.577-.561a.075.075 0 01.042-.128l.796-.116a.075.075 0 00.057-.04l.356-.723zM6.737 4.636a.075.075 0 01.134 0l.356.722a.073.073 0 00.057.04l.796.117a.075.075 0 01.042.128l-.577.561a.075.075 0 00-.021.067l.136.793a.075.075 0 01-.109.079l-.712-.375a.075.075 0 00-.07 0l-.712.375a.075.075 0 01-.11-.08l.137-.792a.075.075 0 00-.022-.067l-.576-.561a.075.075 0 01.042-.128l.796-.116a.075.075 0 00.056-.041l.357-.722zm10.392 6a.075.075 0 01.134 0l.356.722a.075.075 0 00.057.04l.796.117a.075.075 0 01.042.128l-.576.561a.075.075 0 00-.022.067l.136.793a.075.075 0 01-.109.079l-.712-.375a.075.075 0 00-.07 0l-.712.375a.075.075 0 01-.109-.08l.136-.792a.075.075 0 00-.021-.067l-.577-.561a.075.075 0 01.042-.128l.796-.116a.075.075 0 00.057-.041l.356-.722zm0-6a.075.075 0 01.134 0l.356.722a.075.075 0 00.057.04l.796.117a.075.075 0 01.042.128l-.576.561a.075.075 0 00-.022.067l.136.793a.075.075 0 01-.109.079l-.712-.375a.075.075 0 00-.07 0l-.712.375a.075.075 0 01-.109-.08l.136-.792a.075.075 0 00-.021-.067l-.577-.561a.075.075 0 01.042-.128l.796-.116a.075.075 0 00.057-.041l.356-.722zm-10.392 6a.075.075 0 01.134 0l.356.722a.073.073 0 00.057.04l.796.117a.075.075 0 01.042.128l-.577.561a.075.075 0 00-.021.067l.136.793a.075.075 0 01-.109.079l-.712-.375a.075.075 0 00-.07 0l-.712.375a.075.075 0 01-.11-.08l.137-.792a.075.075 0 00-.022-.067l-.576-.561a.075.075 0 01.042-.128l.796-.116a.075.075 0 00.056-.041l.357-.722zM8.933 2.44a.075.075 0 01.134 0l.356.722a.073.073 0 00.057.04l.796.116a.075.075 0 01.042.128l-.576.562a.075.075 0 00-.022.066l.136.794a.075.075 0 01-.109.079l-.712-.375a.075.075 0 00-.07 0l-.712.375a.075.075 0 01-.109-.08l.136-.793a.075.075 0 00-.021-.066l-.577-.562a.075.075 0 01.042-.128l.796-.115a.075.075 0 00.057-.041l.356-.722zm6 10.392a.075.075 0 01.134 0l.357.722c.01.022.031.037.056.041l.796.116a.075.075 0 01.042.128l-.576.561a.075.075 0 00-.022.067l.136.793a.075.075 0 01-.109.079l-.712-.375a.075.075 0 00-.07 0l-.712.375a.075.075 0 01-.109-.079l.136-.793a.075.075 0 00-.021-.067l-.577-.561a.075.075 0 01.042-.128l.796-.116a.075.075 0 00.057-.04l.356-.723z" fill="#FFD018"/></svg>