<svg width="20" height="20" fill="none" xmlns="http://www.w3.org/2000/svg"><path d="M7.892 12.733a.618.618 0 01-.442-.183A3.588 3.588 0 016.392 10 3.61 3.61 0 0110 6.392c.958 0 1.867.375 2.55 1.058a.624.624 0 010 .883L8.333 12.55a.618.618 0 01-.441.183zM10 7.642a2.362 2.362 0 00-2.05 3.525l3.217-3.217c-.35-.2-.75-.308-1.167-.308z" fill="#3C3C3C"/><path d="M4.667 15.425a.635.635 0 01-.409-.15A12.098 12.098 0 011.883 12.5c-.883-1.375-.883-3.617 0-5C3.917 4.317 6.875 2.483 10 2.483c1.833 0 3.642.634 5.225 1.825a.625.625 0 01-.75 1C13.108 4.275 11.558 3.733 10 3.733c-2.692 0-5.267 1.617-7.067 4.442-.625.975-.625 2.675 0 3.65a11.443 11.443 0 002.134 2.5.63.63 0 01.066.883.605.605 0 01-.466.217zM10 17.517a8.228 8.228 0 01-3.233-.667.625.625 0 01.483-1.15 6.994 6.994 0 002.742.567c2.691 0 5.266-1.617 7.066-4.442.625-.975.625-2.675 0-3.65a11.88 11.88 0 00-.841-1.167.633.633 0 01.091-.883.625.625 0 01.884.092c.325.4.642.833.925 1.283.883 1.375.883 3.617 0 5-2.034 3.183-4.992 5.017-8.117 5.017z" fill="#3C3C3C"/><path d="M10.575 13.558a.632.632 0 01-.617-.508.613.613 0 01.5-.725 2.35 2.35 0 001.85-1.85.632.632 0 01.733-.5.626.626 0 01.5.733 3.58 3.58 0 01-2.85 2.85c-.041-.008-.075 0-.116 0zm-8.908 5.4a.618.618 0 01-.442-.183.629.629 0 010-.883l6.225-6.225a.629.629 0 01.884 0 .629.629 0 010 .883l-6.225 6.225a.618.618 0 01-.442.183zM12.108 8.517a.618.618 0 01-.441-.183.629.629 0 010-.884l6.225-6.225a.629.629 0 01.883 0 .629.629 0 010 .884L12.55 8.334a.618.618 0 01-.442.183z" fill="#3C3C3C"/></svg>