<svg width="32" height="32" fill="none" xmlns="http://www.w3.org/2000/svg"><path fill-rule="evenodd" clip-rule="evenodd" d="M0 16C0 7.163 7.163 0 16 0s16 7.163 16 16-7.163 16-16 16S0 24.837 0 16zm15.977-4.252c1.3 0 2.177.562 2.677 1.032l1.954-1.91c-1.2-1.118-2.762-1.803-4.631-1.803a6.917 6.917 0 00-6.185 3.82A6.948 6.948 0 009.054 16a6.95 6.95 0 00.738 3.112l2.246-1.74-2.238 1.74a6.906 6.906 0 006.177 3.821c1.87 0 3.439-.616 4.585-1.68 1.307-1.209 2.061-2.988 2.061-5.099 0-.57-.046-.986-.146-1.417h-6.5v2.573h3.815c-.077.639-.492 1.602-1.415 2.25-.585.408-1.37.692-2.4.692-1.83 0-3.385-1.209-3.938-2.88A4.273 4.273 0 0111.807 16c0-.478.084-.94.223-1.371.561-1.672 2.115-2.881 3.946-2.881zm2.4 7.811l2.185 1.695-2.185-1.695zm-6.346-4.93l-2.239-1.741 2.239 1.74z" fill="#232323"/></svg>