<svg width="30" height="30" fill="none" xmlns="http://www.w3.org/2000/svg"><path fill-rule="evenodd" clip-rule="evenodd" d="M15 28.5c7.456 0 13.5-6.044 13.5-13.5S22.456 1.5 15 1.5 1.5 7.544 1.5 15 7.544 28.5 15 28.5zm0 1.5c8.284 0 15-6.716 15-15 0-8.284-6.716-15-15-15C6.716 0 0 6.716 0 15c0 8.284 6.716 15 15 15z" fill="#FF655E"/><path d="M14 16.5a.991.991 0 011-.982c.552 0 1 .44 1 .982a.99.99 0 01-1 .983c-.552 0-1-.44-1-.983z" fill="#FF655E"/><path fill-rule="evenodd" clip-rule="evenodd" d="M15 7c-2.076 0-3.75 1.695-3.75 3.773V12H9v9h12v-9h-2.25v-1.227C18.75 8.695 17.076 7 15 7zm2.25 5v-1.227A2.262 2.262 0 0015 8.5a2.262 2.262 0 00-2.25 2.273V12h4.5zm2.25 7.5v-6h-9v6h9z" fill="#FF655E"/></svg>