<svg width="32" height="32" fill="none" xmlns="http://www.w3.org/2000/svg"><path fill-rule="evenodd" clip-rule="evenodd" d="M0 16C0 7.163 7.163 0 16 0s16 7.163 16 16-7.163 16-16 16S0 24.837 0 16zm15.99.257c2.359 0 4.277-1.852 4.277-4.128C20.267 9.852 18.349 8 15.989 8c-2.359 0-4.277 1.852-4.277 4.13 0 2.275 1.918 4.127 4.277 4.127zm4.225 2.377a8.176 8.176 0 01-2.484.993l2.39 2.308a1.18 1.18 0 010 1.71 1.284 1.284 0 01-1.77 0L16 21.378l-2.35 2.269a1.275 1.275 0 01-.886.354c-.32 0-.64-.118-.886-.354a1.18 1.18 0 010-1.71l2.391-2.31a8.188 8.188 0 01-2.484-.992 1.185 1.185 0 01-.392-1.668 1.278 1.278 0 011.727-.38 5.596 5.596 0 005.76 0 1.279 1.279 0 011.727.38 1.185 1.185 0 01-.392 1.668z" fill="#232323"/><path d="M15.989 10.42c.976 0 1.77.767 1.77 1.71 0 .941-.794 1.708-1.77 1.708s-1.771-.767-1.771-1.709c0-.942.795-1.71 1.77-1.71z" fill="#232323"/></svg>