<svg width="68" height="68" fill="none" xmlns="http://www.w3.org/2000/svg"><path fill-rule="evenodd" clip-rule="evenodd" d="M34.708 9.917c-13.67 0-24.791 11.12-24.791 24.792 0 13.67 11.12 24.791 24.791 24.791C48.38 59.5 59.5 48.38 59.5 34.71c0-13.671-11.121-24.792-24.792-24.792m0 53.833c-16.014 0-29.041-13.027-29.041-29.041 0-16.014 13.027-29.042 29.041-29.042 16.014 0 29.042 13.028 29.042 29.042 0 16.014-13.028 29.041-29.042 29.041" fill="#fff"/><path fill-rule="evenodd" clip-rule="evenodd" d="M31.546 28.578c-.502 2.837-.51 9.611-.009 12.303 2.488-.879 7.877-4.42 9.328-6.174-1.445-1.703-6.766-5.171-9.32-6.129zm-.867 16.76c-.765 0-1.49-.219-2.082-.808-.457-.45-1.675-1.655-1.68-9.585-.003-8.42 1.263-9.673 1.68-10.09 1.481-1.467 3.895-.462 4.924-.03 1.473.614 11.812 5.91 11.812 9.87 0 3.712-9.304 8.903-11.682 9.895-.926.385-1.983.747-2.972.747z" fill="#fff"/></svg>