<svg width="21" height="20" fill="none" xmlns="http://www.w3.org/2000/svg"><path d="M10.235 3.333c1.842 0 3.507.745 4.711 1.95l1.952-1.95v5.833H11.06l2.685-2.683A4.934 4.934 0 0010.23 5a4.995 4.995 0 00-4.706 3.333h-.015a4.956 4.956 0 00-.216.833H3.616a6.66 6.66 0 016.61-5.833h.009zm-6.671 7.5v5.833l1.951-1.95a6.638 6.638 0 004.712 1.95h.008a6.66 6.66 0 006.611-5.833H15.17a4.957 4.957 0 01-.216.833h-.015A4.995 4.995 0 0110.232 15a4.934 4.934 0 01-3.516-1.484l2.685-2.683H3.564z" fill="#fff"/></svg>