<svg width="32" height="32" fill="none" xmlns="http://www.w3.org/2000/svg"><path fill-rule="evenodd" clip-rule="evenodd" d="M22.542 14.043s.123.624.164.63c2.263.322 3.96 1.642 3.96 3.994A4.667 4.667 0 0122 23.333H10a4.667 4.667 0 01-.665-9.286.572.572 0 01.123-.004 6.669 6.669 0 0113.084 0z" fill="#F3F3F3"/><path d="M22 23.333h.274c2.426 0 4.393-1.915 4.393-4.277 0-2.164-1.65-3.952-3.79-4.238-.297-3.446-3.263-6.151-6.877-6.151-3.197 0-5.887 2.117-6.67 4.99-2.282.46-3.997 2.429-3.997 4.787 0 2.585 2.06 4.701 4.667 4.877m2 1.809l1.667-2.886m1.666 2.22L17 21.577m1 4.22l1.667-2.886" stroke="#231815" stroke-width="2" stroke-linecap="round" stroke-linejoin="round"/></svg>