<svg width="60" height="39" fill="none" xmlns="http://www.w3.org/2000/svg"><g clip-path="url(#clip0_234:3503)"><path d="M52.503-15.196l12.372 7.143L43.11 29.643 31.619 36.69l-1.16-.67.28-13.518 21.764-37.697z" stroke="#3C3C3C" stroke-width="2"/><path d="M62.294-12.16L40.326 25.89l21.968-38.05zm-4.948-2.858l-21.969 38.05 21.969-38.05z" stroke="#3C3C3C" stroke-width="2" stroke-linecap="square"/><path fill-rule="evenodd" clip-rule="evenodd" d="M31.136 31.811s1.151.15 2.234.775c1.082.625 1.555 1.413 1.555 1.413l-3.814 2.231.025-4.418z" fill="#3C3C3C"/><path d="M31.137 23.05s.298.224 1.78.615c1.482.392 2.486-.885 2.486-.885s.216 2.445 1.577 3.23c1.362.787 3.508-.294 3.508-.294s-.372 1.384.476 2.595c.85 1.212 1.624 1.35 1.624 1.35" stroke="#3C3C3C" stroke-width="2"/><path d="M19.337 31.825h-32.858 32.858zm11.428 5H-2.091h32.858z" stroke="#3C3C3C" stroke-width="2" stroke-linecap="round"/></g><defs><clipPath id="clip0_234:3503"><path fill="#fff" d="M0 0h60v38.25H0z"/></clipPath></defs></svg>