<svg width="32" height="32" fill="none" xmlns="http://www.w3.org/2000/svg"><path clip-rule="evenodd" d="M23.333 16a7.333 7.333 0 11-14.666 0 7.333 7.333 0 0114.666 0z" stroke="#231815" stroke-width="2"/><g clip-path="url(#clip0_226:9806)"><path stroke="#F25022" stroke-width="2" stroke-linecap="round" stroke-linejoin="round" d="M28.333 16.333h-2"/></g><g clip-path="url(#clip1_226:9806)"><path stroke="#F25022" stroke-width="2" stroke-linecap="round" stroke-linejoin="round" d="M5.667 16.333h-2"/></g><g clip-path="url(#clip2_226:9806)"><path stroke="#231815" stroke-width="2" stroke-linecap="round" stroke-linejoin="round" d="M28.333 16.333h-2"/></g><g clip-path="url(#clip3_226:9806)"><path stroke="#231815" stroke-width="2" stroke-linecap="round" stroke-linejoin="round" d="M5.667 16.333h-2"/></g><g clip-path="url(#clip4_226:9806)"><path stroke="#231815" stroke-width="2" stroke-linecap="round" stroke-linejoin="round" d="M26.514 22.455l-1.732-1"/></g><g clip-path="url(#clip5_226:9806)"><path stroke="#231815" stroke-width="2" stroke-linecap="round" stroke-linejoin="round" d="M6.884 11.122l-1.732-1"/></g><g clip-path="url(#clip6_226:9806)"><path stroke="#231815" stroke-width="2" stroke-linecap="round" stroke-linejoin="round" d="M21.878 26.848l-1-1.732"/></g><g clip-path="url(#clip7_226:9806)"><path stroke="#231815" stroke-width="2" stroke-linecap="round" stroke-linejoin="round" d="M10.545 7.218l-1-1.732"/></g><g clip-path="url(#clip8_226:9806)"><path stroke="#231815" stroke-width="2" stroke-linecap="round" stroke-linejoin="round" d="M15.667 28.333v-2"/></g><g clip-path="url(#clip9_226:9806)"><path stroke="#231815" stroke-width="2" stroke-linecap="round" stroke-linejoin="round" d="M15.667 5.667v-2"/></g><g clip-path="url(#clip10_226:9806)"><path stroke="#231815" stroke-width="2" stroke-linecap="round" stroke-linejoin="round" d="M9.545 26.514l1-1.732"/></g><g clip-path="url(#clip11_226:9806)"><path stroke="#231815" stroke-width="2" stroke-linecap="round" stroke-linejoin="round" d="M20.878 6.884l1-1.732"/></g><g clip-path="url(#clip12_226:9806)"><path stroke="#231815" stroke-width="2" stroke-linecap="round" stroke-linejoin="round" d="M5.152 21.878l1.732-1"/></g><g clip-path="url(#clip13_226:9806)"><path stroke="#231815" stroke-width="2" stroke-linecap="round" stroke-linejoin="round" d="M24.782 10.545l1.732-1"/></g><path d="M22.667 16a6.667 6.667 0 11-13.334 0 6.667 6.667 0 0113.334 0z" fill="#FFB900"/><defs><clipPath id="clip0_226:9806"><rect x="24.667" y="14.667" width="5.333" height="2.667" rx="1.333" fill="#fff"/></clipPath><clipPath id="clip1_226:9806"><rect x="2" y="14.667" width="5.333" height="2.667" rx="1.333" fill="#fff"/></clipPath><clipPath id="clip2_226:9806"><rect x="24.667" y="14.667" width="5.333" height="2.667" rx="1.333" fill="#fff"/></clipPath><clipPath id="clip3_226:9806"><rect x="2" y="14.667" width="5.333" height="2.667" rx="1.333" fill="#fff"/></clipPath><clipPath id="clip4_226:9806"><rect x="24.172" y="19.179" width="5.333" height="2.667" rx="1.333" transform="rotate(30 24.172 19.179)" fill="#fff"/></clipPath><clipPath id="clip5_226:9806"><rect x="4.542" y="7.845" width="5.333" height="2.667" rx="1.333" transform="rotate(30 4.542 7.845)" fill="#fff"/></clipPath><clipPath id="clip6_226:9806"><rect x="21.488" y="22.839" width="5.333" height="2.667" rx="1.333" transform="rotate(60 21.488 22.839)" fill="#fff"/></clipPath><clipPath id="clip7_226:9806"><rect x="10.155" y="3.209" width="5.333" height="2.667" rx="1.333" transform="rotate(60 10.155 3.209)" fill="#fff"/></clipPath><clipPath id="clip8_226:9806"><rect x="17.333" y="24.667" width="5.333" height="2.667" rx="1.333" transform="rotate(90 17.333 24.667)" fill="#fff"/></clipPath><clipPath id="clip9_226:9806"><rect x="17.333" y="2" width="5.333" height="2.667" rx="1.333" transform="rotate(90 17.333 2)" fill="#fff"/></clipPath><clipPath id="clip10_226:9806"><rect x="12.821" y="24.172" width="5.333" height="2.667" rx="1.333" transform="rotate(120 12.821 24.172)" fill="#fff"/></clipPath><clipPath id="clip11_226:9806"><rect x="24.155" y="4.542" width="5.333" height="2.667" rx="1.333" transform="rotate(120 24.155 4.542)" fill="#fff"/></clipPath><clipPath id="clip12_226:9806"><rect x="9.161" y="21.488" width="5.333" height="2.667" rx="1.333" transform="rotate(150 9.161 21.488)" fill="#fff"/></clipPath><clipPath id="clip13_226:9806"><rect x="28.791" y="10.155" width="5.333" height="2.667" rx="1.333" transform="rotate(150 28.791 10.155)" fill="#fff"/></clipPath></defs></svg>