<svg width="42" height="43" fill="none" xmlns="http://www.w3.org/2000/svg"><path fill-rule="evenodd" clip-rule="evenodd" d="M7.312 6.356C4.037 9.128 2 13.143 2 18.176v4.057c0 6.865 2.094 11.412 5.327 14.26 3.256 2.866 7.817 4.143 12.997 4.143h1.352c5.18 0 9.742-1.277 12.998-4.135C37.907 33.663 40 29.136 40 22.312v-4.056c0-5.033-2.037-9.048-5.312-11.82-3.29-2.787-7.882-4.356-13.012-4.356h-1.829v-.075c-4.938.094-9.347 1.651-12.535 4.35zM6.005 37.993c3.633 3.2 8.547 4.563 13.842 4.64v.003h1.829c5.476 0 10.576-1.347 14.318-4.632C39.759 34.7 42 29.564 42 22.312v-4.056c0-5.622-2.297-10.195-6.02-13.347C32.273 1.77 27.201.079 21.676.079h-1.352V0C14.8 0 9.727 1.69 6.02 4.83 2.297 7.98 0 12.553 0 18.176v4.056c0 7.29 2.24 12.444 6.005 15.76zm19.886-22.679v-3.022a3.99 3.99 0 00-.477-.08c-.16-.02-.319-.04-.478-.079h-1.749c-.954.08-1.829.239-2.545.795-.875.637-1.352 1.511-1.51 2.545-.08.398-.08.875-.08 1.272v2.228h-2.863v3.34h2.863v8.51h3.499v-8.43h2.863c.08-1.114.238-2.227.397-3.34h-3.34v-2.386c.08-1.034.637-1.352 1.432-1.352h1.988z" fill="#000"/></svg>