<svg width="42" height="42" fill="none" xmlns="http://www.w3.org/2000/svg"><path fill-rule="evenodd" clip-rule="evenodd" d="M7.202 6.266C3.995 8.981 2 12.912 2 17.842v3.977c0 6.727 2.052 11.18 5.216 13.967 3.172 2.793 7.611 4.046 12.656 4.058h1.401c5.076 0 9.544-1.251 12.732-4.05 3.165-2.778 5.215-7.21 5.215-13.897V17.92c0-4.93-1.995-8.861-5.201-11.576-3.223-2.728-7.72-4.266-12.746-4.266H19.48v-.074c-4.838.093-9.156 1.619-12.278 4.262zm-1.307 31.02c3.567 3.142 8.39 4.48 13.585 4.555v.003h1.793c5.372 0 10.378-1.322 14.051-4.547 3.698-3.245 5.896-8.286 5.896-15.4V17.92c0-5.519-2.254-10.008-5.91-13.102-3.638-3.081-8.615-4.74-14.037-4.74h-1.326V0C14.526 0 9.55 1.659 5.91 4.74 2.255 7.834 0 12.323 0 17.842v3.977C0 28.97 2.198 34.03 5.895 37.286zm20.914-19.678l.078-.078a8 8 0 00.042-.035c.45-.374.818-.68.894-1.134.078-.078.136-.156.194-.234.059-.078.117-.156.195-.234-.545.234-1.17.39-1.793.468.702-.468 1.17-1.014 1.404-1.794h-.079c-.545.312-1.247.546-1.87.702-.079 0-.079 0-.157-.078-.78-.78-1.715-1.092-2.807-.936-.935.156-1.637.702-2.183 1.482-.39.624-.546 1.325-.468 2.105.078.156.078.234.078.39-2.65-.156-4.912-1.326-6.628-3.353-.39.702-.467 1.482-.311 2.34.155.779.623 1.48 1.325 1.949-.468 0-.936-.156-1.403-.39 0 .623.155 1.17.467 1.715.468.78 1.17 1.248 2.106 1.482h-.078c-.468.155-.936.155-1.404.078.312 1.013 1.326 2.183 3.041 2.26a6.375 6.375 0 01-1.56.936 5.654 5.654 0 01-3.196.468l.078.078c1.56 1.014 3.275 1.482 5.146 1.404.201-.025.395-.043.585-.06.4-.034.786-.069 1.208-.174 1.716-.39 3.197-1.248 4.445-2.495.701-.78 1.247-1.638 1.715-2.573.468-.936.702-1.872.858-2.885.078-.468.078-.936.078-1.404z" fill="#000"/></svg>