<svg width="42" height="42" fill="none" xmlns="http://www.w3.org/2000/svg"><path fill-rule="evenodd" clip-rule="evenodd" d="M7.422 6.266c-3.206 2.715-5.201 6.646-5.201 11.576v3.977c0 6.727 2.052 11.18 5.216 13.967 3.172 2.793 7.611 4.046 12.656 4.058h1.401c5.076 0 9.544-1.251 12.732-4.05 3.164-2.778 5.215-7.21 5.215-13.897V17.92c0-4.93-1.995-8.861-5.202-11.576-3.222-2.728-7.719-4.266-12.745-4.266H19.7v-.074c-4.837.093-9.155 1.619-12.278 4.262zm-1.307 31.02c3.567 3.142 8.39 4.48 13.585 4.555v.003h1.794c5.372 0 10.378-1.322 14.051-4.547 3.697-3.245 5.896-8.286 5.896-15.4V17.92c0-5.519-2.255-10.008-5.91-13.102-3.639-3.081-8.616-4.74-14.037-4.74h-1.326V0C14.746 0 9.77 1.659 6.13 4.74 2.475 7.834.22 12.323.22 17.842v3.977c0 7.151 2.198 12.212 5.895 15.467zM27.731 13.71a4.252 4.252 0 011.404 2.885c.156 1.326.312 7.642-.078 9.123-.546 1.872-1.793 3.041-3.743 3.353-1.481.234-8.03.234-9.357-.078-1.949-.468-3.118-1.715-3.43-3.665-.234-1.403-.312-8.109.078-9.512.545-1.872 1.793-2.963 3.664-3.275 1.716-.312 6.394-.234 8.344-.078 1.17.078 2.26.39 3.118 1.248zm-2.885 13.88c1.56-.156 2.495-1.092 2.73-2.573.233-1.482.233-6.862.077-8.344-.155-1.559-1.091-2.495-2.573-2.729-1.481-.156-6.861-.156-8.343 0-1.481.156-2.417 1.092-2.65 2.574-.235 1.559-.157 7.407 0 8.576.155 1.248.857 2.028 2.026 2.34 1.248.39 7.408.311 8.733.156zm-8.42-6.784a4.36 4.36 0 014.366-4.366 4.36 4.36 0 014.366 4.366 4.36 4.36 0 01-4.366 4.366 4.36 4.36 0 01-4.367-4.366zm1.559 0a2.795 2.795 0 002.807 2.807 2.795 2.795 0 002.807-2.807 2.795 2.795 0 00-2.807-2.807 2.795 2.795 0 00-2.807 2.807zm7.33-3.509c.545 0 1.013-.468 1.013-1.013 0-.546-.39-1.014-1.014-1.014-.546 0-1.013.468-1.013 1.014 0 .545.467 1.013 1.013 1.013z" fill="#000"/></svg>