<svg width="24" height="18" fill="none" xmlns="http://www.w3.org/2000/svg"><path d="M24 0H0v16.5h24V0z" fill="#EEF3F8"/><path d="M13.5 0H0v10.5h13.5V0z" fill="#41479B"/><path d="M24 0H13.5v1.5H24V0zm0 3H13.5v1.5H24V3zm0 3H13.5v1.5H24V6zm0 3H13.5v1.5H24V9zm0 3H0v1.5h24V12zm0 3H0v1.5h24V15z" fill="#DC251C"/><path d="M3 1.5H1.5V3H3V1.5zm3 0H4.5V3H6V1.5zm3 0H7.5V3H9V1.5zm3 0h-1.5V3H12V1.5zm-9 3H1.5V6H3V4.5zm3 0H4.5V6H6V4.5zm3 0H7.5V6H9V4.5zM4.5 6H3v1.5h1.5V6zm3 0H6v1.5h1.5V6zm3 0H9v1.5h1.5V6zm-6-3H3v1.5h1.5V3zm3 0H6v1.5h1.5V3zm3 0H9v1.5h1.5V3zM12 4.5h-1.5V6H12V4.5zm-9 3H1.5V9H3V7.5zm3 0H4.5V9H6V7.5zm3 0H7.5V9H9V7.5zm3 0h-1.5V9H12V7.5z" fill="#C5D0EC"/></svg>