<svg width="32" height="32" viewBox="0 0 32 32" fill="none" xmlns="http://www.w3.org/2000/svg">
<path fill-rule="evenodd" clip-rule="evenodd" d="M22.5418 14.0427C22.5418 14.0427 22.6646 14.6666 22.7065 14.6726C24.969 14.9952 26.6666 16.315 26.6666 18.6666C26.6666 21.244 24.5772 23.3333 21.9999 23.3333H9.99992C7.42259 23.3333 5.33325 21.244 5.33325 18.6666C5.33325 16.315 7.07274 14.3696 9.33523 14.0469C9.37715 14.041 9.41822 14.0397 9.45809 14.0427C10.0592 10.9784 12.7596 8.66663 15.9999 8.66663C19.2403 8.66663 21.9407 10.9784 22.5418 14.0427Z" fill="#F3F3F3"/>
<path d="M10.3529 23.3333C7.58061 23.3333 5.33325 21.1445 5.33325 18.4444C5.33325 16.086 7.0478 14.1177 9.3291 13.6573C10.1134 10.7839 12.8028 8.66663 15.9999 8.66663C19.6142 8.66663 22.5797 11.3724 22.8773 14.8177C25.0178 15.1039 26.6666 16.8922 26.6666 19.0555C26.6666 21.4181 24.7001 23.3333 22.2744 23.3333H10.3529Z" stroke="#231815" stroke-width="2" stroke-linecap="round" stroke-linejoin="round"/>
</svg>
