<svg width="230" height="44" viewBox="0 0 230 44" fill="none" xmlns="http://www.w3.org/2000/svg">
<g clip-path="url(#clip0_616:2916)">
<path d="M115.379 0.333496H214.465V43.6668H115.379V0.333496Z" fill="#F7F9FC" stroke="url(#paint0_linear_616:2916)"/>
<path d="M128.88 29.7778C128.738 29.7778 128.61 29.7259 128.496 29.6222C128.397 29.5037 128.347 29.3704 128.347 29.2222V14.7778C128.347 14.6148 128.397 14.4814 128.496 14.3778C128.61 14.274 128.738 14.2222 128.88 14.2222H131.143C131.498 14.2222 131.74 14.3629 131.869 14.6444L137.076 23.1778V14.7778C137.076 14.6148 137.126 14.4814 137.226 14.3778C137.34 14.274 137.468 14.2222 137.61 14.2222H140.171C140.328 14.2222 140.456 14.274 140.556 14.3778C140.655 14.4814 140.705 14.6148 140.705 14.7778V29.2C140.705 29.3629 140.655 29.5037 140.556 29.6222C140.456 29.7259 140.328 29.7778 140.171 29.7778H137.888C137.574 29.7778 137.34 29.637 137.183 29.3555L131.975 21.1333V29.2222C131.975 29.3704 131.925 29.5037 131.826 29.6222C131.726 29.7259 131.598 29.7778 131.442 29.7778H128.88Z" fill="#3C3C3C"/>
<path d="M145.289 29.7778C145.147 29.7778 145.019 29.7259 144.905 29.6222C144.806 29.5037 144.756 29.3704 144.756 29.2222V14.7778C144.756 14.6148 144.806 14.4814 144.905 14.3778C145.019 14.274 145.147 14.2222 145.289 14.2222H155.257C155.413 14.2222 155.542 14.274 155.641 14.3778C155.74 14.4814 155.79 14.6148 155.79 14.7778V16.8666C155.79 17.0148 155.74 17.1481 155.641 17.2666C155.542 17.3704 155.413 17.4222 155.257 17.4222H148.448V20.4222H154.788C154.944 20.4222 155.072 20.4814 155.171 20.6C155.271 20.7037 155.321 20.837 155.321 21V22.9333C155.321 23.0814 155.271 23.2148 155.171 23.3333C155.072 23.437 154.944 23.4888 154.788 23.4888H148.448V26.5778H155.428C155.584 26.5778 155.713 26.6296 155.812 26.7333C155.911 26.837 155.961 26.9704 155.961 27.1333V29.2222C155.961 29.3704 155.911 29.5037 155.812 29.6222C155.713 29.7259 155.584 29.7778 155.428 29.7778H145.289Z" fill="#3C3C3C"/>
<path d="M161.845 29.7778C161.603 29.7778 161.411 29.7111 161.269 29.5778C161.126 29.4296 161.041 29.2518 161.013 29.0444L158.686 14.8444C158.672 14.8 158.665 14.7481 158.665 14.6888C158.665 14.5704 158.708 14.4666 158.793 14.3778C158.892 14.274 158.999 14.2222 159.113 14.2222H161.76C162.158 14.2222 162.378 14.3852 162.422 14.7111L163.809 23.3778L165.346 18.2666C165.502 17.8666 165.737 17.6666 166.05 17.6666H167.587C167.943 17.6666 168.177 17.8666 168.291 18.2666L169.828 23.3778L171.215 14.7111C171.258 14.3852 171.478 14.2222 171.877 14.2222H174.524C174.651 14.2222 174.758 14.274 174.843 14.3778C174.943 14.4666 174.993 14.5704 174.993 14.6888L174.972 14.8444L172.645 29.0444C172.617 29.2518 172.525 29.4296 172.368 29.5778C172.225 29.7111 172.04 29.7778 171.813 29.7778H169.785C169.557 29.7778 169.38 29.7185 169.251 29.6C169.124 29.4814 169.031 29.3481 168.974 29.2L166.818 22.8444L164.663 29.2C164.534 29.5852 164.271 29.7778 163.873 29.7778H161.845Z" fill="#3C3C3C"/>
<path d="M183.747 30C182.395 30 181.235 29.7926 180.267 29.3778C179.3 28.9629 178.567 28.4222 178.07 27.7555C177.585 27.0741 177.329 26.3333 177.301 25.5333C177.301 25.4148 177.343 25.3111 177.429 25.2222C177.528 25.1185 177.643 25.0667 177.77 25.0667H180.46C180.63 25.0667 180.765 25.1037 180.865 25.1778C180.979 25.2371 181.093 25.3333 181.207 25.4667C181.392 25.8519 181.691 26.1704 182.103 26.4222C182.516 26.6741 183.064 26.8 183.747 26.8C184.558 26.8 185.176 26.6667 185.603 26.4C186.03 26.1333 186.244 25.7704 186.244 25.3111C186.244 24.9852 186.13 24.7185 185.903 24.5111C185.689 24.3037 185.347 24.1185 184.878 23.9555C184.408 23.7926 183.711 23.6074 182.786 23.4C181.079 23.0296 179.798 22.4889 178.944 21.7778C178.105 21.0519 177.685 20.0222 177.685 18.6889C177.685 17.7852 177.927 16.9778 178.411 16.2667C178.895 15.5555 179.584 15 180.481 14.6C181.377 14.2 182.423 14 183.618 14C184.857 14 185.931 14.2222 186.842 14.6667C187.752 15.1111 188.442 15.6741 188.912 16.3555C189.396 17.0222 189.652 17.6815 189.681 18.3333C189.681 18.4667 189.638 18.5778 189.552 18.6667C189.467 18.7555 189.36 18.8 189.232 18.8H186.415C186.244 18.8 186.102 18.7704 185.988 18.7111C185.888 18.6519 185.796 18.5555 185.71 18.4222C185.625 18.0815 185.39 17.7926 185.006 17.5555C184.636 17.3185 184.174 17.2 183.618 17.2C182.979 17.2 182.487 17.3185 182.146 17.5555C181.804 17.7926 181.634 18.1407 181.634 18.6C181.634 18.9111 181.726 19.1704 181.911 19.3778C182.11 19.5852 182.423 19.7778 182.85 19.9555C183.291 20.1185 183.918 20.2889 184.728 20.4667C186.052 20.7185 187.105 21.0371 187.888 21.4222C188.684 21.7926 189.268 22.2815 189.638 22.8889C190.008 23.4815 190.193 24.2296 190.193 25.1333C190.193 26.1259 189.915 26.9926 189.36 27.7333C188.819 28.4593 188.058 29.0222 187.076 29.4222C186.109 29.8074 184.999 30 183.747 30Z" fill="#3C3C3C"/>
<path d="M200.168 7.6665H228.763V36.3332H200.168V7.6665Z" fill="url(#paint1_linear_616:2916)"/>
<path d="M200.168 7.6665H228.763V36.3332H200.168V7.6665Z" fill="url(#paint2_linear_616:2916)"/>
<path d="M206.755 26C206.684 26 206.618 25.9733 206.561 25.92C206.511 25.8591 206.485 25.7905 206.485 25.7143V18.2857C206.485 18.2019 206.511 18.1333 206.561 18.08C206.618 18.0267 206.684 18 206.755 18H207.922C208.095 18 208.221 18.0838 208.301 18.2514L210.202 21.8514L212.104 18.2514C212.183 18.0838 212.31 18 212.482 18H213.638C213.717 18 213.783 18.0267 213.832 18.08C213.89 18.1333 213.919 18.2019 213.919 18.2857V25.7143C213.919 25.7981 213.89 25.8667 213.832 25.92C213.783 25.9733 213.717 26 213.638 26H212.353C212.273 26 212.204 25.9733 212.147 25.92C212.097 25.8667 212.071 25.7981 212.071 25.7143V21.4286L210.861 23.8171C210.768 23.9924 210.642 24.08 210.483 24.08H209.921C209.828 24.08 209.752 24.0571 209.695 24.0114C209.637 23.9657 209.586 23.9009 209.543 23.8171L208.322 21.4286V25.7143C208.322 25.7905 208.297 25.8591 208.246 25.92C208.196 25.9733 208.131 26 208.052 26H206.755Z" fill="white"/>
<path d="M216.244 26C216.171 26 216.107 25.9733 216.049 25.92C215.998 25.8591 215.974 25.7905 215.974 25.7143V18.2857C215.974 18.2019 215.998 18.1333 216.049 18.08C216.107 18.0267 216.171 18 216.244 18H219.053C220.111 18 220.933 18.2667 221.516 18.8C222.1 19.3333 222.406 20.1067 222.435 21.12C222.442 21.3409 222.445 21.6343 222.445 22C222.445 22.3657 222.442 22.6553 222.435 22.8686C222.399 23.9276 222.1 24.7162 221.538 25.2343C220.983 25.7447 220.173 26 219.106 26H216.244ZM219.053 24.3543C219.528 24.3543 219.877 24.2362 220.101 24C220.324 23.7562 220.443 23.3714 220.457 22.8457C220.472 22.6247 220.479 22.3391 220.479 21.9886C220.479 21.6381 220.472 21.3562 220.457 21.1429C220.443 20.6324 220.313 20.2553 220.068 20.0114C219.831 19.7676 219.474 19.6457 218.999 19.6457H217.918V24.3543H219.053Z" fill="white"/>
<path d="M200.168 7.6665H228.763V36.3332H200.168V7.6665Z" stroke="white"/>
<path d="M0 26.6667C0 11.9391 13.3787 0 29.8823 0H115.047V44H0V26.6667Z" fill="url(#paint3_linear_616:2916)"/>
<path d="M21.0182 17.9161C19.9258 17.9161 19.0471 18.3118 18.3821 19.1033C17.7171 19.8789 17.3846 20.8287 17.3846 21.9526C17.3846 23.029 17.6855 23.9392 18.2871 24.6832C18.8887 25.4271 19.7041 25.8229 20.7333 25.8704V24.0895H19.2846V22.1663H22.467V27.8174H21.0182C19.3717 27.8174 18.0576 27.2397 17.0759 26.0841C16.126 24.9919 15.6509 23.6147 15.6509 21.9526C15.6509 20.2905 16.126 18.8975 17.0759 17.7736C18.0576 16.5864 19.3717 15.9927 21.0182 15.9927H24.8181V17.9161H21.0182ZM21.0182 30.4531C18.6592 30.4531 16.7593 29.5745 15.3185 27.8174C13.9727 26.1711 13.2998 24.145 13.2998 21.7389C13.2998 19.3486 13.9806 17.3779 15.3423 15.8265C16.7672 14.1961 18.6592 13.3809 21.0182 13.3809H24.8181V15.3042H21.0182C19.1817 15.3042 17.725 15.9136 16.6484 17.1325C15.5718 18.3355 15.0335 19.871 15.0335 21.7389C15.0335 23.6226 15.556 25.2055 16.6009 26.4877C17.725 27.8491 19.1975 28.5297 21.0182 28.5297H23.0844V21.6677H19.2846V19.7443H24.8181V30.4531H21.0182Z" fill="white"/>
<path d="M32.2047 17.9161V19.5069H35.2445V21.4302H30.471V15.9927H35.8621V17.9161H32.2047ZM28.1436 30.4531V13.3809H35.8621V15.3042H29.8773V28.5297H35.8621V30.4531H28.1436ZM30.471 27.8174V22.1663H35.2445V24.0895H32.2047V25.8941H35.8621V27.8174H30.471Z" fill="white"/>
<path d="M50.4921 30.6668C49.7004 30.6668 49.0117 30.2474 48.4259 29.4084L43.2961 22.0239V30.4532H41.5386V16.5627C43.3752 19.2062 46.1381 23.1082 49.8271 28.2686C50.0487 28.5694 50.215 28.7198 50.3258 28.7198C50.405 28.7198 50.4683 28.5298 50.5158 28.15C50.5316 27.9442 50.5396 27.6672 50.5396 27.3189V13.381H52.297V28.1737C52.297 28.8068 52.1703 29.353 51.917 29.812C51.5845 30.3819 51.1095 30.6668 50.4921 30.6668ZM41.7999 15.7554C41.5624 15.4388 41.3328 15.2805 41.1112 15.2805C41.0003 15.2805 40.9449 15.4072 40.9449 15.6604V30.4532H39.1875V15.6604C39.1875 15.0272 39.3379 14.497 39.6387 14.0696C39.9712 13.5788 40.4541 13.3335 41.0874 13.3335C41.8949 13.3335 42.5519 13.7055 43.0586 14.4495L48.1884 21.8102V13.381H49.9221V27.2714L41.7999 15.7554Z" fill="white"/>
<path d="M59.6832 17.9161V19.5069H62.723V21.4302H57.9495V15.9927H63.3405V17.9161H59.6832ZM55.6221 30.4531V13.3809H63.3405V15.3042H57.3557V28.5297H63.3405V30.4531H55.6221ZM57.9495 27.8174V22.1663H62.723V24.0895H59.6832V25.8941H63.3405V27.8174H57.9495Z" fill="white"/>
<path d="M77.637 30.4531L72.2458 24.422C73.782 23.9946 74.8899 23.4722 75.5709 22.8549C76.4101 22.1109 76.8297 21.0582 76.8297 19.6969C76.8297 18.2405 76.315 17.1246 75.2862 16.3489C74.3679 15.6524 73.1482 15.3042 71.6287 15.3042H68.4227V30.4531H66.665V13.3809H71.6287C73.6077 13.3809 75.2463 13.9429 76.5444 15.0667C77.9376 16.2539 78.6346 17.8211 78.6346 19.7681C78.6346 20.9237 78.3493 22.0001 77.7794 22.9973C77.2254 23.9787 76.4573 24.7386 75.4758 25.2768L80.1548 30.4531H77.637ZM74.1457 30.4531C73.3225 29.5507 72.1986 28.2923 70.7735 26.6777V30.4531H69.0398V15.9927H72.0084C73.1642 15.9927 74.1298 16.3173 74.9058 16.9663C75.7132 17.6628 76.1168 18.5888 76.1168 19.7443C76.1168 20.4883 75.9193 21.1849 75.5236 21.8339C75.1273 22.4829 74.5893 22.9499 73.9083 23.2348C73.7181 23.3139 73.0691 23.4247 71.9612 23.5672C71.4385 23.6305 71.1771 23.7888 71.1771 24.0421C71.1771 24.2795 71.3514 24.5961 71.6998 24.9919L76.5684 30.4531H74.1457ZM72.0084 17.9161H70.7735V22.0238C70.9637 21.8813 71.2882 21.7626 71.747 21.6677C72.0955 21.6201 72.444 21.5647 72.7924 21.5015C73.8691 21.2798 74.4071 20.6941 74.4071 19.7443C74.4071 19.1587 74.1537 18.6996 73.647 18.3672C73.2041 18.0664 72.6574 17.9161 72.0084 17.9161Z" fill="white"/>
<path d="M85.7608 30.4531V13.3809H87.4233V30.4531H85.7608ZM83.4805 30.4531V13.3809H85.1669V30.4531H83.4805Z" fill="white"/>
<path d="M98.4196 27.8174C96.8043 27.8174 95.4982 27.2397 94.5007 26.0841C93.5664 24.9919 93.0995 23.6147 93.0995 21.9526C93.0995 20.2905 93.5664 18.9054 94.5007 17.7973C95.4982 16.5943 96.8043 15.9927 98.4196 15.9927H101.269V17.9161H98.4196C97.327 17.9161 96.4558 18.3118 95.8068 19.1033C95.1577 19.8789 94.8332 20.8287 94.8332 21.9526C94.8332 23.0923 95.1577 24.0341 95.8068 24.7781C96.4558 25.5221 97.327 25.8941 98.4196 25.8941H101.269V27.8174H98.4196ZM98.4196 30.4531C96.0921 30.4531 94.2081 29.5666 92.767 27.7937C91.421 26.1474 90.748 24.1291 90.748 21.7389C90.748 19.3486 91.429 17.3779 92.791 15.8265C94.2001 14.1961 96.0761 13.3809 98.4196 13.3809H101.269V15.3042H98.4196C96.5988 15.3042 95.1498 15.9136 94.0731 17.1325C93.0124 18.3355 92.4817 19.871 92.4817 21.7389C92.4817 23.6226 93.0044 25.2055 94.0492 26.4877C95.1577 27.8491 96.6141 28.5297 98.4196 28.5297H101.269V30.4531H98.4196Z" fill="white"/>
</g>
<defs>
<linearGradient id="paint0_linear_616:2916" x1="208.619" y1="4.6935" x2="120.645" y2="-20.1297" gradientUnits="userSpaceOnUse">
<stop stop-color="#313545"/>
<stop offset="1" stop-color="#121118"/>
</linearGradient>
<linearGradient id="paint1_linear_616:2916" x1="226.992" y1="10.7243" x2="200.179" y2="7.39525" gradientUnits="userSpaceOnUse">
<stop stop-color="#313545"/>
<stop offset="1" stop-color="#121118"/>
</linearGradient>
<linearGradient id="paint2_linear_616:2916" x1="226.992" y1="10.7243" x2="200.179" y2="7.39525" gradientUnits="userSpaceOnUse">
<stop stop-color="#313545"/>
<stop offset="1" stop-color="#121118"/>
</linearGradient>
<linearGradient id="paint3_linear_616:2916" x1="107.92" y1="4.69333" x2="8.86937" y2="-27.541" gradientUnits="userSpaceOnUse">
<stop stop-color="#313545"/>
<stop offset="1" stop-color="#121118"/>
</linearGradient>
<clipPath id="clip0_616:2916">
<rect width="229.429" height="44" fill="white"/>
</clipPath>
</defs>
</svg>
