<svg width="230" height="44" viewBox="0 0 230 44" fill="none" xmlns="http://www.w3.org/2000/svg">
<g clip-path="url(#clip0_226:2728)">
<path d="M115.379 0.333313H214.466V43.6666H115.379V0.333313Z" fill="#F7F9FC" stroke="url(#paint0_linear_226:2728)"/>
<path d="M128.88 29.7778C128.738 29.7778 128.61 29.7259 128.497 29.6222C128.397 29.5037 128.347 29.3704 128.347 29.2222V14.7778C128.347 14.6148 128.397 14.4815 128.497 14.3778C128.61 14.2741 128.738 14.2222 128.88 14.2222H131.143C131.498 14.2222 131.74 14.3629 131.869 14.6445L137.077 23.1778V14.7778C137.077 14.6148 137.126 14.4815 137.226 14.3778C137.34 14.2741 137.468 14.2222 137.611 14.2222H140.171C140.328 14.2222 140.456 14.2741 140.556 14.3778C140.656 14.4815 140.705 14.6148 140.705 14.7778V29.2C140.705 29.3629 140.656 29.5037 140.556 29.6222C140.456 29.7259 140.328 29.7778 140.171 29.7778H137.888C137.575 29.7778 137.34 29.6371 137.184 29.3555L131.975 21.1333V29.2222C131.975 29.3704 131.925 29.5037 131.826 29.6222C131.727 29.7259 131.598 29.7778 131.442 29.7778H128.88Z" fill="#3C3C3C"/>
<path d="M145.289 29.7778C145.147 29.7778 145.019 29.7259 144.905 29.6222C144.805 29.5037 144.756 29.3704 144.756 29.2222V14.7778C144.756 14.6148 144.805 14.4815 144.905 14.3778C145.019 14.2741 145.147 14.2222 145.289 14.2222H155.257C155.413 14.2222 155.541 14.2741 155.641 14.3778C155.74 14.4815 155.79 14.6148 155.79 14.7778V16.8667C155.79 17.0148 155.74 17.1481 155.641 17.2667C155.541 17.3704 155.413 17.4222 155.257 17.4222H148.448V20.4222H154.787C154.944 20.4222 155.072 20.4815 155.171 20.6C155.271 20.7037 155.321 20.8371 155.321 21V22.9333C155.321 23.0815 155.271 23.2148 155.171 23.3333C155.072 23.4371 154.944 23.4889 154.787 23.4889H148.448V26.5778H155.428C155.584 26.5778 155.712 26.6296 155.811 26.7333C155.911 26.8371 155.961 26.9704 155.961 27.1333V29.2222C155.961 29.3704 155.911 29.5037 155.811 29.6222C155.712 29.7259 155.584 29.7778 155.428 29.7778H145.289Z" fill="#3C3C3C"/>
<path d="M161.845 29.7778C161.603 29.7778 161.411 29.7111 161.268 29.5778C161.126 29.4296 161.041 29.2519 161.012 29.0445L158.686 14.8445C158.671 14.8 158.665 14.7481 158.665 14.6889C158.665 14.5704 158.707 14.4667 158.792 14.3778C158.892 14.2741 158.999 14.2222 159.113 14.2222H161.76C162.158 14.2222 162.378 14.3852 162.421 14.7111L163.809 23.3778L165.345 18.2667C165.502 17.8667 165.737 17.6667 166.05 17.6667H167.587C167.942 17.6667 168.177 17.8667 168.291 18.2667L169.828 23.3778L171.215 14.7111C171.257 14.3852 171.478 14.2222 171.877 14.2222H174.523C174.651 14.2222 174.758 14.2741 174.843 14.3778C174.943 14.4667 174.993 14.5704 174.993 14.6889L174.972 14.8445L172.645 29.0445C172.617 29.2519 172.524 29.4296 172.367 29.5778C172.225 29.7111 172.04 29.7778 171.813 29.7778H169.785C169.557 29.7778 169.379 29.7185 169.251 29.6C169.123 29.4815 169.031 29.3481 168.974 29.2L166.818 22.8445L164.663 29.2C164.534 29.5852 164.271 29.7778 163.872 29.7778H161.845Z" fill="#3C3C3C"/>
<path d="M183.747 30C182.395 30 181.235 29.7926 180.268 29.3778C179.3 28.9629 178.567 28.4222 178.07 27.7555C177.586 27.074 177.33 26.3333 177.301 25.5333C177.301 25.4148 177.344 25.3111 177.429 25.2222C177.528 25.1185 177.643 25.0666 177.771 25.0666H180.46C180.631 25.0666 180.766 25.1037 180.865 25.1778C180.979 25.237 181.093 25.3333 181.207 25.4666C181.392 25.8518 181.691 26.1704 182.104 26.4222C182.516 26.674 183.064 26.8 183.747 26.8C184.558 26.8 185.177 26.6666 185.604 26.4C186.031 26.1333 186.244 25.7704 186.244 25.3111C186.244 24.9852 186.13 24.7185 185.903 24.5111C185.689 24.3037 185.348 24.1185 184.878 23.9555C184.409 23.7926 183.712 23.6074 182.787 23.4C181.079 23.0296 179.798 22.4888 178.944 21.7778C178.105 21.0518 177.685 20.0222 177.685 18.6888C177.685 17.7852 177.927 16.9778 178.411 16.2666C178.895 15.5555 179.585 15 180.481 14.6C181.378 14.2 182.424 14 183.619 14C184.857 14 185.932 14.2222 186.842 14.6666C187.752 15.1111 188.443 15.674 188.912 16.3555C189.396 17.0222 189.652 17.6814 189.681 18.3333C189.681 18.4666 189.638 18.5778 189.552 18.6666C189.467 18.7555 189.36 18.8 189.233 18.8H186.415C186.244 18.8 186.102 18.7704 185.988 18.7111C185.888 18.6518 185.796 18.5555 185.711 18.4222C185.625 18.0814 185.39 17.7926 185.006 17.5555C184.636 17.3185 184.174 17.2 183.619 17.2C182.979 17.2 182.487 17.3185 182.146 17.5555C181.804 17.7926 181.634 18.1407 181.634 18.6C181.634 18.9111 181.727 19.1704 181.912 19.3778C182.11 19.5852 182.424 19.7778 182.851 19.9555C183.291 20.1185 183.918 20.2888 184.729 20.4666C186.052 20.7185 187.105 21.037 187.888 21.4222C188.685 21.7926 189.268 22.2814 189.638 22.8888C190.008 23.4814 190.193 24.2296 190.193 25.1333C190.193 26.1259 189.916 26.9926 189.36 27.7333C188.82 28.4592 188.058 29.0222 187.077 29.4222C186.109 29.8074 184.999 30 183.747 30Z" fill="#3C3C3C"/>
<path d="M200.168 7.66663H228.763V36.3333H200.168V7.66663Z" fill="url(#paint1_linear_226:2728)"/>
<path d="M200.168 7.66663H228.763V36.3333H200.168V7.66663Z" fill="url(#paint2_linear_226:2728)"/>
<path d="M206.756 26C206.684 26 206.619 25.9734 206.562 25.92C206.511 25.8591 206.486 25.7905 206.486 25.7143V18.2858C206.486 18.202 206.511 18.1334 206.562 18.08C206.619 18.0267 206.684 18 206.756 18H207.923C208.096 18 208.222 18.0838 208.301 18.2514L210.203 21.8514L212.105 18.2514C212.184 18.0838 212.31 18 212.483 18H213.639C213.718 18 213.783 18.0267 213.833 18.08C213.891 18.1334 213.919 18.202 213.919 18.2858V25.7143C213.919 25.7981 213.891 25.8667 213.833 25.92C213.783 25.9734 213.718 26 213.639 26H212.353C212.273 26 212.205 25.9734 212.148 25.92C212.097 25.8667 212.072 25.7981 212.072 25.7143V21.4286L210.862 23.8172C210.769 23.9924 210.642 24.08 210.484 24.08H209.922C209.828 24.08 209.752 24.0572 209.695 24.0114C209.637 23.9658 209.587 23.901 209.544 23.8172L208.323 21.4286V25.7143C208.323 25.7905 208.297 25.8591 208.247 25.92C208.197 25.9734 208.132 26 208.053 26H206.756Z" fill="white"/>
<path d="M216.244 26C216.172 26 216.107 25.9734 216.049 25.92C215.999 25.8591 215.974 25.7905 215.974 25.7143V18.2858C215.974 18.202 215.999 18.1334 216.049 18.08C216.107 18.0267 216.172 18 216.244 18H219.053C220.112 18 220.933 18.2667 221.517 18.8C222.1 19.3334 222.406 20.1067 222.435 21.12C222.443 21.341 222.446 21.6343 222.446 22C222.446 22.3658 222.443 22.6553 222.435 22.8686C222.399 23.9276 222.1 24.7162 221.538 25.2343C220.984 25.7448 220.174 26 219.107 26H216.244ZM219.053 24.3543C219.529 24.3543 219.878 24.2362 220.101 24C220.325 23.7562 220.444 23.3714 220.458 22.8458C220.472 22.6248 220.48 22.3391 220.48 21.9886C220.48 21.6381 220.472 21.3562 220.458 21.1429C220.444 20.6324 220.314 20.2553 220.069 20.0114C219.831 19.7676 219.475 19.6458 218.999 19.6458H217.919V24.3543H219.053Z" fill="white"/>
<path d="M200.168 7.66663H228.763V36.3333H200.168V7.66663Z" stroke="white"/>
<path d="M0 26.6667C0 11.9391 13.3787 0 29.8823 0H115.047V44H0V26.6667Z" fill="url(#paint3_linear_226:2728)"/>
<path d="M21.0182 17.9159C19.9258 17.9159 19.0471 18.3117 18.3821 19.1031C17.7171 19.8788 17.3846 20.8285 17.3846 21.9525C17.3846 23.0289 17.6855 23.9391 18.2871 24.6831C18.8887 25.427 19.7041 25.8227 20.7333 25.8703V24.0894H19.2846V22.1661H22.467V27.8173H21.0182C19.3717 27.8173 18.0576 27.2395 17.0759 26.0839C16.126 24.9917 15.6509 23.6145 15.6509 21.9525C15.6509 20.2903 16.126 18.8973 17.0759 17.7735C18.0576 16.5863 19.3717 15.9926 21.0182 15.9926H24.8181V17.9159H21.0182ZM21.0182 30.4529C18.6592 30.4529 16.7593 29.5743 15.3185 27.8173C13.9727 26.171 13.2998 24.1449 13.2998 21.7387C13.2998 19.3485 13.9806 17.3777 15.3423 15.8264C16.7672 14.196 18.6592 13.3807 21.0182 13.3807H24.8181V15.3041H21.0182C19.1817 15.3041 17.725 15.9135 16.6484 17.1323C15.5718 18.3354 15.0335 19.8709 15.0335 21.7387C15.0335 23.6225 15.556 25.2054 16.6009 26.4876C17.725 27.8489 19.1975 28.5296 21.0182 28.5296H23.0844V21.6675H19.2846V19.7442H24.8181V30.4529H21.0182Z" fill="white"/>
<path d="M32.2047 17.9159V19.5068H35.2445V21.4301H30.471V15.9926H35.8621V17.9159H32.2047ZM28.1436 30.4529V13.3807H35.8621V15.3041H29.8773V28.5296H35.8621V30.4529H28.1436ZM30.471 27.8173V22.1661H35.2445V24.0894H32.2047V25.894H35.8621V27.8173H30.471Z" fill="white"/>
<path d="M50.4921 30.6667C49.7004 30.6667 49.0117 30.2472 48.4259 29.4082L43.2961 22.0238V30.453H41.5386V16.5626C43.3752 19.2061 46.1381 23.1081 49.8271 28.2685C50.0487 28.5693 50.215 28.7197 50.3258 28.7197C50.405 28.7197 50.4683 28.5297 50.5158 28.1498C50.5316 27.944 50.5396 27.667 50.5396 27.3188V13.3808H52.297V28.1736C52.297 28.8067 52.1703 29.3528 51.917 29.8119C51.5845 30.3818 51.1095 30.6667 50.4921 30.6667ZM41.7999 15.7553C41.5624 15.4387 41.3328 15.2804 41.1112 15.2804C41.0003 15.2804 40.9449 15.407 40.9449 15.6603V30.453H39.1875V15.6603C39.1875 15.0271 39.3379 14.4968 39.6387 14.0694C39.9712 13.5787 40.4541 13.3334 41.0874 13.3334C41.8949 13.3334 42.5519 13.7054 43.0586 14.4494L48.1884 21.8101V13.3808H49.9221V27.2712L41.7999 15.7553Z" fill="white"/>
<path d="M59.6832 17.9159V19.5068H62.723V21.4301H57.9495V15.9926H63.3405V17.9159H59.6832ZM55.6221 30.4529V13.3807H63.3405V15.3041H57.3557V28.5296H63.3405V30.4529H55.6221ZM57.9495 27.8173V22.1661H62.723V24.0894H59.6832V25.894H63.3405V27.8173H57.9495Z" fill="white"/>
<path d="M77.637 30.4529L72.2458 24.4219C73.782 23.9945 74.8899 23.4721 75.5709 22.8547C76.4101 22.1107 76.8297 21.0581 76.8297 19.6967C76.8297 18.2404 76.315 17.1245 75.2862 16.3488C74.3679 15.6523 73.1482 15.3041 71.6287 15.3041H68.4227V30.4529H66.665V13.3807H71.6287C73.6077 13.3807 75.2463 13.9427 76.5444 15.0666C77.9376 16.2538 78.6346 17.8209 78.6346 19.768C78.6346 20.9235 78.3493 21.9999 77.7794 22.9972C77.2254 23.9786 76.4573 24.7385 75.4758 25.2767L80.1548 30.4529H77.637ZM74.1457 30.4529C73.3225 29.5506 72.1986 28.2922 70.7735 26.6775V30.4529H69.0398V15.9926H72.0084C73.1642 15.9926 74.1298 16.3171 74.9058 16.9661C75.7132 17.6627 76.1168 18.5887 76.1168 19.7442C76.1168 20.4882 75.9193 21.1847 75.5236 21.8337C75.1273 22.4827 74.5893 22.9497 73.9083 23.2347C73.7181 23.3138 73.0691 23.4246 71.9612 23.5671C71.4385 23.6304 71.1771 23.7887 71.1771 24.0419C71.1771 24.2794 71.3514 24.596 71.6998 24.9917L76.5684 30.4529H74.1457ZM72.0084 17.9159H70.7735V22.0237C70.9637 21.8812 71.2882 21.7625 71.747 21.6675C72.0955 21.62 72.444 21.5646 72.7924 21.5013C73.8691 21.2797 74.4071 20.694 74.4071 19.7442C74.4071 19.1585 74.1537 18.6995 73.647 18.3671C73.2041 18.0663 72.6574 17.9159 72.0084 17.9159Z" fill="white"/>
<path d="M85.7608 30.4529V13.3807H87.4233V30.4529H85.7608ZM83.4805 30.4529V13.3807H85.1669V30.4529H83.4805Z" fill="white"/>
<path d="M98.4196 27.8173C96.8043 27.8173 95.4982 27.2395 94.5007 26.0839C93.5664 24.9917 93.0995 23.6145 93.0995 21.9525C93.0995 20.2903 93.5664 18.9053 94.5007 17.7972C95.4982 16.5941 96.8043 15.9926 98.4196 15.9926H101.269V17.9159H98.4196C97.327 17.9159 96.4558 18.3117 95.8068 19.1031C95.1577 19.8788 94.8332 20.8285 94.8332 21.9525C94.8332 23.0922 95.1577 24.034 95.8068 24.778C96.4558 25.522 97.327 25.894 98.4196 25.894H101.269V27.8173H98.4196ZM98.4196 30.4529C96.0921 30.4529 94.2081 29.5665 92.767 27.7935C91.421 26.1473 90.748 24.129 90.748 21.7387C90.748 19.3485 91.429 17.3777 92.791 15.8264C94.2001 14.196 96.0761 13.3807 98.4196 13.3807H101.269V15.3041H98.4196C96.5988 15.3041 95.1498 15.9135 94.0731 17.1323C93.0124 18.3354 92.4817 19.8709 92.4817 21.7387C92.4817 23.6225 93.0044 25.2054 94.0492 26.4876C95.1577 27.8489 96.6141 28.5296 98.4196 28.5296H101.269V30.4529H98.4196Z" fill="white"/>
</g>
<defs>
<linearGradient id="paint0_linear_226:2728" x1="208.619" y1="4.69332" x2="120.646" y2="-20.1299" gradientUnits="userSpaceOnUse">
<stop stop-color="#313545"/>
<stop offset="1" stop-color="#121118"/>
</linearGradient>
<linearGradient id="paint1_linear_226:2728" x1="226.992" y1="10.7244" x2="200.179" y2="7.39537" gradientUnits="userSpaceOnUse">
<stop stop-color="#313545"/>
<stop offset="1" stop-color="#121118"/>
</linearGradient>
<linearGradient id="paint2_linear_226:2728" x1="226.992" y1="10.7244" x2="200.179" y2="7.39537" gradientUnits="userSpaceOnUse">
<stop stop-color="#313545"/>
<stop offset="1" stop-color="#121118"/>
</linearGradient>
<linearGradient id="paint3_linear_226:2728" x1="107.92" y1="4.69333" x2="8.86937" y2="-27.541" gradientUnits="userSpaceOnUse">
<stop stop-color="#313545"/>
<stop offset="1" stop-color="#121118"/>
</linearGradient>
<clipPath id="clip0_226:2728">
<rect width="229.429" height="44" fill="white"/>
</clipPath>
</defs>
</svg>
