<svg width="32" height="32" viewBox="0 0 32 32" fill="none" xmlns="http://www.w3.org/2000/svg">
<path fill-rule="evenodd" clip-rule="evenodd" d="M14.9064 9.86541C14.9064 9.86541 14.9985 10.3334 15.03 10.3379C16.7268 10.5798 18 11.5696 18 13.3334C18 15.2664 16.433 16.8334 14.5 16.8334H5.5C3.567 16.8334 2 15.2664 2 13.3334C2 11.5696 3.30461 10.1106 5.00148 9.86861C5.03293 9.86412 5.06373 9.86317 5.09363 9.86541C5.54444 7.56723 7.56974 5.83337 10 5.83337C12.4303 5.83337 14.4556 7.56723 14.9064 9.86541Z" fill="#F3F3F3"/>
<path d="M5.76471 16.8334C3.68552 16.8334 2 15.1918 2 13.1667C2 11.3979 3.28591 9.92167 4.99689 9.57636C5.58508 7.4213 7.60214 5.83337 10 5.83337C12.7107 5.83337 14.9348 7.86274 15.158 10.4467C16.7634 10.6613 18 12.0025 18 13.625C18 15.397 16.5252 16.8334 14.7059 16.8334H5.76471Z" stroke="#231815" stroke-width="2" stroke-linecap="round" stroke-linejoin="round"/>
<path fill-rule="evenodd" clip-rule="evenodd" d="M22.5418 14.0427C22.5418 14.0427 22.6646 14.6666 22.7065 14.6726C24.969 14.9952 26.6666 16.315 26.6666 18.6666C26.6666 21.244 24.5772 23.3333 21.9999 23.3333H9.99992C7.42259 23.3333 5.33325 21.244 5.33325 18.6666C5.33325 16.315 7.07274 14.3696 9.33523 14.0469C9.37715 14.041 9.41822 14.0397 9.45809 14.0427C10.0592 10.9784 12.7596 8.66663 15.9999 8.66663C19.2403 8.66663 21.9407 10.9784 22.5418 14.0427Z" fill="#F3F3F3"/>
<path d="M10.3529 23.3333C7.58061 23.3333 5.33325 21.1445 5.33325 18.4444C5.33325 16.086 7.0478 14.1177 9.3291 13.6573C10.1134 10.7839 12.8028 8.66663 15.9999 8.66663C19.6142 8.66663 22.5797 11.3724 22.8773 14.8177C25.0178 15.1039 26.6666 16.8922 26.6666 19.0555C26.6666 21.4181 24.7001 23.3333 22.2744 23.3333H10.3529Z" stroke="#231815" stroke-width="2" stroke-linecap="round" stroke-linejoin="round"/>
</svg>
