<svg width="32" height="32" viewBox="0 0 32 32" fill="none" xmlns="http://www.w3.org/2000/svg">
<path fill-rule="evenodd" clip-rule="evenodd" d="M23.3333 16C23.3333 20.05 20.05 23.3333 16 23.3333C11.9499 23.3333 8.66663 20.05 8.66663 16C8.66663 11.9499 11.9499 8.66663 16 8.66663C20.05 8.66663 23.3333 11.9499 23.3333 16Z" stroke="#231815" stroke-width="2"/>
<g clip-path="url(#clip0_226:9806)">
<line x1="28.3333" y1="16.3333" x2="26.3333" y2="16.3333" stroke="#F25022" stroke-width="2" stroke-linecap="round" stroke-linejoin="round"/>
</g>
<g clip-path="url(#clip1_226:9806)">
<line x1="5.66663" y1="16.3333" x2="3.66663" y2="16.3333" stroke="#F25022" stroke-width="2" stroke-linecap="round" stroke-linejoin="round"/>
</g>
<g clip-path="url(#clip2_226:9806)">
<line x1="28.3333" y1="16.3333" x2="26.3333" y2="16.3333" stroke="#231815" stroke-width="2" stroke-linecap="round" stroke-linejoin="round"/>
</g>
<g clip-path="url(#clip3_226:9806)">
<line x1="5.66663" y1="16.3333" x2="3.66663" y2="16.3333" stroke="#231815" stroke-width="2" stroke-linecap="round" stroke-linejoin="round"/>
</g>
<g clip-path="url(#clip4_226:9806)">
<line x1="26.5143" y1="22.4553" x2="24.7823" y2="21.4553" stroke="#231815" stroke-width="2" stroke-linecap="round" stroke-linejoin="round"/>
</g>
<g clip-path="url(#clip5_226:9806)">
<line x1="6.88446" y1="11.122" x2="5.15241" y2="10.122" stroke="#231815" stroke-width="2" stroke-linecap="round" stroke-linejoin="round"/>
</g>
<g clip-path="url(#clip6_226:9806)">
<line x1="21.878" y1="26.8476" x2="20.878" y2="25.1155" stroke="#231815" stroke-width="2" stroke-linecap="round" stroke-linejoin="round"/>
</g>
<g clip-path="url(#clip7_226:9806)">
<line x1="10.5446" y1="7.21771" x2="9.54462" y2="5.48566" stroke="#231815" stroke-width="2" stroke-linecap="round" stroke-linejoin="round"/>
</g>
<g clip-path="url(#clip8_226:9806)">
<line x1="15.6667" y1="28.3333" x2="15.6667" y2="26.3333" stroke="#231815" stroke-width="2" stroke-linecap="round" stroke-linejoin="round"/>
</g>
<g clip-path="url(#clip9_226:9806)">
<line x1="15.6667" y1="5.66663" x2="15.6667" y2="3.66663" stroke="#231815" stroke-width="2" stroke-linecap="round" stroke-linejoin="round"/>
</g>
<g clip-path="url(#clip10_226:9806)">
<line x1="9.54474" y1="26.5143" x2="10.5447" y2="24.7823" stroke="#231815" stroke-width="2" stroke-linecap="round" stroke-linejoin="round"/>
</g>
<g clip-path="url(#clip11_226:9806)">
<line x1="20.878" y1="6.88446" x2="21.878" y2="5.15241" stroke="#231815" stroke-width="2" stroke-linecap="round" stroke-linejoin="round"/>
</g>
<g clip-path="url(#clip12_226:9806)">
<line x1="5.1524" y1="21.878" x2="6.88445" y2="20.878" stroke="#231815" stroke-width="2" stroke-linecap="round" stroke-linejoin="round"/>
</g>
<g clip-path="url(#clip13_226:9806)">
<line x1="24.7823" y1="10.5446" x2="26.5143" y2="9.54462" stroke="#231815" stroke-width="2" stroke-linecap="round" stroke-linejoin="round"/>
</g>
<path d="M22.6666 15.9999C22.6666 19.6818 19.6818 22.6666 15.9999 22.6666C12.318 22.6666 9.33325 19.6818 9.33325 15.9999C9.33325 12.318 12.318 9.33325 15.9999 9.33325C19.6818 9.33325 22.6666 12.318 22.6666 15.9999Z" fill="#FFB900"/>
<defs>
<clipPath id="clip0_226:9806">
<rect x="24.6666" y="14.6666" width="5.33333" height="2.66667" rx="1.33333" fill="white"/>
</clipPath>
<clipPath id="clip1_226:9806">
<rect x="2" y="14.6666" width="5.33333" height="2.66667" rx="1.33333" fill="white"/>
</clipPath>
<clipPath id="clip2_226:9806">
<rect x="24.6666" y="14.6666" width="5.33333" height="2.66667" rx="1.33333" fill="white"/>
</clipPath>
<clipPath id="clip3_226:9806">
<rect x="2" y="14.6666" width="5.33333" height="2.66667" rx="1.33333" fill="white"/>
</clipPath>
<clipPath id="clip4_226:9806">
<rect x="24.1722" y="19.1786" width="5.33333" height="2.66666" rx="1.33333" transform="rotate(30 24.1722 19.1786)" fill="white"/>
</clipPath>
<clipPath id="clip5_226:9806">
<rect x="4.54236" y="7.84534" width="5.33333" height="2.66667" rx="1.33333" transform="rotate(30 4.54236 7.84534)" fill="white"/>
</clipPath>
<clipPath id="clip6_226:9806">
<rect x="21.488" y="22.8389" width="5.33333" height="2.66667" rx="1.33333" transform="rotate(60 21.488 22.8389)" fill="white"/>
</clipPath>
<clipPath id="clip7_226:9806">
<rect x="10.1547" y="3.20898" width="5.33333" height="2.66667" rx="1.33333" transform="rotate(60 10.1547 3.20898)" fill="white"/>
</clipPath>
<clipPath id="clip8_226:9806">
<rect x="17.3334" y="24.6666" width="5.33333" height="2.66667" rx="1.33333" transform="rotate(90 17.3334 24.6666)" fill="white"/>
</clipPath>
<clipPath id="clip9_226:9806">
<rect x="17.3334" y="2" width="5.33333" height="2.66667" rx="1.33333" transform="rotate(90 17.3334 2)" fill="white"/>
</clipPath>
<clipPath id="clip10_226:9806">
<rect x="12.8214" y="24.1722" width="5.33333" height="2.66667" rx="1.33333" transform="rotate(120 12.8214 24.1722)" fill="white"/>
</clipPath>
<clipPath id="clip11_226:9806">
<rect x="24.1547" y="4.54236" width="5.33333" height="2.66667" rx="1.33333" transform="rotate(120 24.1547 4.54236)" fill="white"/>
</clipPath>
<clipPath id="clip12_226:9806">
<rect x="9.16113" y="21.488" width="5.33333" height="2.66667" rx="1.33333" transform="rotate(150 9.16113 21.488)" fill="white"/>
</clipPath>
<clipPath id="clip13_226:9806">
<rect x="28.791" y="10.1547" width="5.33333" height="2.66667" rx="1.33333" transform="rotate(150 28.791 10.1547)" fill="white"/>
</clipPath>
</defs>
</svg>
